<svg aria-hidden="true" style="position: absolute; width: 0; height: 0; overflow: hidden;" version="1.1" xmlns="http://www.w3.org/2000/svg" xmlns:xlink="http://www.w3.org/1999/xlink">
<defs>
<symbol id="icon-clock" viewBox="0 0 32 32">
<path d="M16 2.667c7.352 0 13.333 5.981 13.333 13.333s-5.981 13.333-13.333 13.333-13.333-5.981-13.333-13.333 5.981-13.333 13.333-13.333zM16 0c-8.836 0-16 7.164-16 16s7.164 16 16 16 16-7.164 16-16-7.164-16-16-16zM23.797 16.612c0.269 0.051 0.269 0.444 0.001 0.496-2.543 0.481-8.060 1.481-8.729 1.481-0.959 0-1.735-0.776-1.735-1.735 0-0.683 1.027-7.263 1.5-9.927 0.045-0.256 0.416-0.241 0.457 0.019l1.313 8.317 7.192 1.348z"></path>
</symbol>
<symbol id="icon-delivery" viewBox="0 0 32 32">
<path d="M6.667 14.667v1.333h10.667v-9.333h-13.333v-1.333c0-0.736 0.597-1.333 1.333-1.333h13.333c0.736 0 1.333 0.597 1.333 1.333v2.667h6.223c1.489 0 2.133 0.768 2.581 1.476 0.792 1.253 2.048 3.243 2.812 4.504 0.251 0.416 0.384 0.893 0.384 1.38v5.973c0 1.452-0.991 2.667-2.667 2.667h-1.333c0 2.208-1.792 4-4 4s-4-1.792-4-4h-5.333c0 2.208-1.792 4-4 4s-4-1.792-4-4h-1.333c-0.736 0-1.333-0.597-1.333-1.333v-8h-2.667v-2.667h9.333v2.667h-4zM10.667 22.4c0.883 0 1.6 0.717 1.6 1.6s-0.717 1.6-1.6 1.6c-0.883 0-1.6-0.717-1.6-1.6s0.717-1.6 1.6-1.6zM24 22.4c0.883 0 1.6 0.717 1.6 1.6s-0.717 1.6-1.6 1.6c-0.883 0-1.6-0.717-1.6-1.6s0.717-1.6 1.6-1.6zM20 18.667h-13.333v2.667h1.020c0.732-0.819 1.796-1.333 2.98-1.333s2.248 0.515 2.98 1.333h7.373c0.732-0.819 1.796-1.333 2.98-1.333s2.248 0.515 2.98 1.333h2.353v-6.1l-2.281-3.905c-0.239-0.409-0.677-0.661-1.151-0.661h-5.901v8zM21.333 12v4h6.667l-1.903-3.328c-0.237-0.416-0.679-0.672-1.157-0.672h-3.607zM0 8h10.667v2.667h-10.667v-2.667z"></path>
</symbol>
<symbol id="icon-eco" viewBox="0 0 32 32">
<path d="M8.063 10.75q2.063-2.063 6.719-3.406t8.281-1.719l3.625-0.313q-0.063 1.563-0.344 4.031t-1.656 7.5-3.438 7.094q-2.125 2.125-5.063 2.594t-5.5-0.781q0.563-3.125 2.688-6.781t4.5-5.656q-6.813 3.5-9.813 10.625-1.125-1.125-1.938-3.094t-0.813-3.531 0.813-3.5 1.938-3.063z"></path>
</symbol>
<symbol id="icon-enjoy" viewBox="0 0 32 32">
<path fill="#f2f2f2" style="fill: var(--color1, #f2f2f2)" d="M29.556 21.304q-0.053 0.115-0.107 0.227-0.083 0.174-0.164 0.342c-0.024 0.049-0.048 0.098-0.071 0.147-0.264 0.54-0.511 1.018-0.721 1.411-0.383 0.707-1.116 1.181-1.96 1.191h-0.001l-22.824 0.246c-0.009 0-0.020 0-0.031 0-0.106 0-0.211-0.006-0.313-0.018l0.013 0.001c-0.038-0.004-0.075-0.009-0.112-0.015-0.629-0.1-1.174-0.405-1.575-0.844l-0.002-0.002c-0.56-0.618-0.967-1.335-1.241-2.115q-0.059-0.169-0.111-0.342c-0.947-3.203 0.208-7.333 2.285-10.096q0.131-0.173 0.266-0.338l0.002-0.002c0.639-0.784 1.356-1.44 2.119-1.906 1.353-0.827 2.851-1.060 4.325-0.366 1.247 0.588 2.412 0.864 3.54 0.939 0.114 0.007 0.228 0.013 0.342 0.016 2.589 0.081 5.016-0.851 7.865-1.454 0.113-0.024 0.227-0.048 0.342-0.070 2.033-0.405 4.288-0.618 6.97-0.169 0.318 0.053 0.595 0.121 0.864 0.208l-0.041-0.012q0.177 0.057 0.342 0.123c1.28 0.521 1.978 1.483 2.275 2.688q0.042 0.168 0.073 0.342c0.526 2.9-1.014 7.014-2.348 9.869z"></path>
<path fill="#000" style="fill: var(--color2, #000)" opacity="0.1" d="M15.278 21.531c-0.014 0.132-0.035 0.248-0.061 0.362l0.004-0.020h2.88v-0.342zM12.873 23.462l0.342-0.003v-0.844c-0.117-0.005-0.231-0.010-0.342-0.016zM5.713 21.531v0.342h6.102v-0.342zM31.832 11.094h-2.275v-2.688q-0.164-0.067-0.342-0.123v2.813h-7.794v-2.841c-0.115 0.022-0.228 0.046-0.342 0.070v2.77h-7.865v-1.316c-0.113-0.003-0.227-0.009-0.342-0.016v1.333h-7.865v-1.906c-0.763 0.466-1.48 1.121-2.119 1.906h-0.002v0.002q-0.135 0.166-0.266 0.338h0.266v10.097h-2.551q0.051 0.173 0.111 0.342h2.44v2.878c0.104 0.033 0.23 0.063 0.36 0.084l0.015 0.002c0.037 0.006 0.075 0.011 0.112 0.015v0c0.090 0.011 0.195 0.017 0.301 0.017 0.011 0 0.022 0 0.033 0h-0.002l1.301-0.014v-2.982h7.867v2.896l0.342-0.004v-2.892h7.865v2.807l0.342-0.004v-2.803h7.792v0.147c0.023-0.049 0.047-0.097 0.071-0.147q0.081-0.167 0.164-0.342 0.053-0.112 0.107-0.227v-9.867h2.349q-0.031-0.175-0.073-0.343zM5.008 21.531v-10.096h7.865v10.096zM13.215 21.531v-10.096h7.865v10.096zM29.214 21.531h-7.793v-10.096h7.792z"></path>
<path fill="#3f3d56" style="fill: var(--color3, #3f3d56)" d="M25.659 17.97c-0.438-0.798-1.032-1.46-1.745-1.963l-0.018-0.012c-0.050-0.035-0.11-0.058-0.174-0.066h-0.002c0.086-0.568 0.068-1.196-0.252-1.669-0.761-1.123-4.637 0.036-4.637 0.036-2.717-0.942-5.072 0.254-5.072 0.254s-3.007-0.471-4.383-0.108c-0.649 0.171-0.807 0.833-0.792 1.485h-0.002c0 0 0 0-0.001 0-0.121 0-0.228 0.056-0.298 0.143l-0.001 0.001c-0.366 0.457-1.472 1.866-1.442 2.138 0.036 0.326 1.232 4.565 1.178 6.611l16.701-0.184s0.277-4.119 0.969-6.374c0.011-0.034 0.017-0.073 0.017-0.113 0-0.065-0.016-0.126-0.045-0.18l0.001 0.002z"></path>
<path fill="#000" style="fill: var(--color2, #000)" opacity="0.1" d="M8.235 18.226l0.688-1.377 0.579 2.681 0.007 1.244-1.274-2.548z"></path>
<path fill="#000" style="fill: var(--color2, #000)" opacity="0.1" d="M24.029 18.226l-0.688-1.377-0.798 2.542 0.154 1.445 1.333-2.61z"></path>
<path fill="#3f3d56" style="fill: var(--color3, #3f3d56)" d="M9.452 19.457l13.092-0.072 0.145 1.449-13.187-0.036-0.050-1.341z"></path>
<path fill="#000" style="fill: var(--color2, #000)" opacity="0.1" d="M9.452 19.457l13.092-0.072 0.145 1.449-13.187-0.036-0.050-1.341z"></path>
<path fill="#fff" style="fill: var(--color4, #fff)" opacity="0.1" d="M9.769 20.693h12.667c0.178 0 0.322 0.144 0.322 0.322v0.914c0 0.178-0.144 0.322-0.322 0.322h-12.667c-0.178 0-0.322-0.144-0.322-0.322v-0.914c0-0.178 0.144-0.322 0.322-0.322z"></path>
<path fill="#ffe09c" style="fill: var(--color5, #ffe09c)" d="M20.034 15.482s-0.044-0.061-0.097-0.028c-0.025 0.016-0.142 0.164-0.257 0.314-0.057 0.073-0.113 0.148-0.157 0.207-0.055 0.073-0.092 0.123-0.092 0.123l-0.022 0.041-0.261 0.487-0.031 0.111 0.427 0.145 0.486-0.133-0.021-0.090-0.004-0.015 0.004-0.207 0.011-0.584 0.005-0.263v-0.031z"></path>
<path fill="#e7c4c3" style="fill: var(--color6, #e7c4c3)" d="M19.057 16.922s0.461 0.164 0.697 0.078c0 0 0.204-0.065 0.285-0.128 0 0 0.086-0.045-0.031-0.191 0 0-0.298 0.183-0.581 0.111l-0.282-0.072z"></path>
<path fill="#ff7f8e" style="fill: var(--color7, #ff7f8e)" d="M19.637 16.527c0.036 0.061 0.006 0.145-0.066 0.187s-0.159 0.027-0.195-0.034c-0.036-0.061-0.006-0.145 0.066-0.187s0.159-0.027 0.195 0.034z"></path>
<path fill="#ff7f8e" style="fill: var(--color7, #ff7f8e)" d="M19.944 16.159c0.036 0.061 0.006 0.145-0.066 0.187s-0.159 0.027-0.195-0.034c-0.036-0.061-0.006-0.145 0.066-0.187s0.159-0.027 0.195 0.034z"></path>
<path fill="#ff7f8e" style="fill: var(--color7, #ff7f8e)" d="M20.009 16.437c-0.018-0.008-0.039-0.012-0.061-0.012-0.031 0-0.059 0.009-0.084 0.024h0.001c-0.072 0.042-0.101 0.126-0.065 0.187s0.123 0.076 0.195 0.034c0.005-0.003 0.010-0.006 0.014-0.010l-0.004-0.015z"></path>
<path fill="#ff7f8e" style="fill: var(--color7, #ff7f8e)" d="M19.487 16.193c-0.017-0.028-0.045-0.048-0.078-0.055h-0.001l-0.134 0.251c0.019 0.009 0.041 0.014 0.065 0.014 0.031 0 0.059-0.009 0.084-0.024h-0.001c0.072-0.042 0.101-0.126 0.065-0.187z"></path>
<path fill="#ff7f8e" style="fill: var(--color7, #ff7f8e)" d="M19.786 15.825c-0.022-0.035-0.061-0.058-0.104-0.058 0 0 0 0-0.001 0v0c-0.057 0.073-0.113 0.148-0.157 0.207l0.002 0.004c0.036 0.061 0.123 0.076 0.195 0.034s0.101-0.125 0.065-0.186z"></path>
<path fill="#ff7f8e" style="fill: var(--color7, #ff7f8e)" d="M20.025 15.59c-0.017 0.004-0.032 0.011-0.046 0.019h0.001c-0.072 0.042-0.101 0.126-0.065 0.187 0.022 0.035 0.061 0.058 0.104 0.058 0 0 0.001 0 0.001 0v0z"></path>
<path fill="#94cc79" style="fill: var(--color8, #94cc79)" d="M19.309 16.598l-0.025-0.041c0.039-0.012 0.072-0.031 0.1-0.056v0c0.002-0.002 0.003-0.004 0.005-0.006 0.031-0.039 0.024 0.042 0.024 0.042s-0.076 0.064-0.104 0.061z"></path>
<path fill="#94cc79" style="fill: var(--color8, #94cc79)" d="M19.672 16.533l-0.025-0.042c0.039-0.012 0.072-0.031 0.1-0.056v0c0-0.002 0.003-0.004 0.005-0.006 0.031-0.038 0.024 0.042 0.024 0.042s-0.076 0.065-0.104 0.061z"></path>
<path fill="#94cc79" style="fill: var(--color8, #94cc79)" d="M19.639 16.361l-0.025-0.042c0.039-0.012 0.072-0.031 0.1-0.055v0c0.002-0.002 0.003-0.004 0.005-0.006 0.031-0.039 0.024 0.041 0.024 0.041s-0.076 0.064-0.104 0.061z"></path>
<path fill="#94cc79" style="fill: var(--color8, #94cc79)" d="M19.683 16.051l-0.025-0.042c0.039-0.012 0.072-0.031 0.1-0.056v0c0-0.002 0.003-0.004 0.005-0.006 0.031-0.039 0.024 0.042 0.024 0.042s-0.076 0.064-0.104 0.061z"></path>
<path fill="#94cc79" style="fill: var(--color8, #94cc79)" d="M19.891 15.675l-0.024-0.042c0.038-0.012 0.072-0.031 0.1-0.056v0c0.002-0.002 0.003-0.004 0.005-0.006v0c0.031-0.038 0.025 0.042 0.025 0.042s-0.076 0.064-0.105 0.061z"></path>
<path fill="#94cc79" style="fill: var(--color8, #94cc79)" d="M19.867 16.058l-0.025-0.042c0.039-0.012 0.072-0.031 0.1-0.055v0c0-0.002 0.003-0.004 0.005-0.006 0.031-0.039 0.024 0.041 0.024 0.041s-0.076 0.065-0.104 0.061z"></path>
<path fill="#e7c4c3" style="fill: var(--color6, #e7c4c3)" d="M18.981 16.792s-0.059 0.154 0.076 0.129c0.058-0.067 0.1-0.149 0.118-0.24l0.001-0.003s0.291-0.638 0.377-0.696c0 0 0.379-0.519 0.42-0.526 0 0 0.013-0.050-0.119 0.056s-0.423 0.517-0.423 0.517l-0.277 0.451-0.065 0.18z"></path>
<path fill="#fff" style="fill: var(--color4, #fff)" opacity="0.2" d="M18.981 16.792s-0.059 0.154 0.076 0.129c0.058-0.067 0.1-0.149 0.118-0.24l0.001-0.003s0.291-0.638 0.377-0.696c0 0 0.379-0.519 0.42-0.526 0 0 0.013-0.050-0.119 0.056s-0.423 0.517-0.423 0.517l-0.277 0.451-0.065 0.18z"></path>
<path fill="#fbbebe" style="fill: var(--color9, #fbbebe)" d="M14.409 19.914c0.059 0.193 0.122 0.354 0.196 0.51l-0.010-0.022c0.244-0.051 0.453-0.113 0.654-0.188l-0.031 0.010c0.006-0.002-0.117-0.163-0.129-0.176-0.049-0.054-0.108-0.1-0.173-0.134l-0.003-0.002c-0.065-0.028-0.145-0.007-0.215-0.003q-0.144 0.007-0.289 0.005z"></path>
<path fill="#2f2e41" style="fill: var(--color10, #2f2e41)" d="M14.915 20.166c-0.106-0.033-0.17-0.14-0.213-0.243s-0.078-0.215-0.16-0.29c-0.032 0.005-0.059 0.026-0.072 0.054v0.001c-0.015 0.034-0.029 0.062-0.045 0.088l0.002-0.004c-0.034 0.049-0.092 0.073-0.137 0.115s-0.069 0.105-0.116 0.148c-0.058 0.053-0.141 0.066-0.217 0.084-0.129 0.030-0.243 0.073-0.348 0.13l0.007-0.004c-0.036 0.022-0.078 0.041-0.122 0.055l-0.004 0.001c-0.027 0.005-0.058 0.009-0.089 0.009-0.021 0-0.041-0.001-0.061-0.004h0.002l-0.338-0.024c-0.010-0.001-0.022-0.002-0.034-0.002-0.020 0-0.039 0.002-0.058 0.006h0.002c-0.064 0.024-0.108 0.084-0.108 0.155 0 0.005 0 0.011 0.001 0.016v-0.001c0.009 0.075 0.049 0.14 0.106 0.182l0.001 0.001c0.055 0.040 0.119 0.073 0.188 0.096l0.005 0.001c0.254 0.1 0.558 0.189 0.871 0.253l0.037 0.006v0.067c0.202 0.102 0.439 0.161 0.691 0.161 0 0 0 0 0 0v0c0.002 0 0.005 0 0.008 0 0.016 0 0.031-0.003 0.045-0.009h-0.001c0.022-0.016 0.037-0.039 0.043-0.066v-0.001c0.077-0.218 0.128-0.47 0.141-0.731v-0.006c0.002-0.016 0.002-0.034 0.002-0.053 0-0.049-0.006-0.096-0.018-0.141l0.001 0.004c-0.018-0.061 0.045-0.035-0.014-0.059z"></path>
<path fill="#2f2e41" style="fill: var(--color10, #2f2e41)" d="M21.41 18.889c-1.004 0.061-1.998-0.234-3.002-0.265-0.028-0.002-0.060-0.003-0.093-0.003-0.099 0-0.196 0.010-0.29 0.028l0.009-0.002c-0.129 0.029-0.25 0.087-0.369 0.143-0.539 0.251-1.097 0.459-1.654 0.666l-0.64 0.239c-0.128 0.048-0.26 0.096-0.397 0.088-0.061-0.004-0.136-0.013-0.17 0.038-0.104 0.154-0.055 0.381 0.014 0.553 0.022 0.056 0.061 0.117 0.12 0.123 0.042 0.004 0.081-0.020 0.123-0.031 0.117-0.031 0.233 0.047 0.353 0.060 0.148 0.016 0.286-0.069 0.425-0.12 0.232-0.086 0.485-0.083 0.729-0.123 0.409-0.068 0.788-0.258 1.142-0.474 0.135-0.082 0.271-0.171 0.426-0.201 0.178-0.035 0.361 0.011 0.536 0.061 0.504 0.143 0.912 0.285 1.31 0.448l-0.082-0.030c0.212 0.085 0.422 0.176 0.642 0.234 0.177 0.048 0.381 0.076 0.59 0.076 0.305 0 0.596-0.059 0.863-0.166l-0.016 0.006c0.16-0.064 0.335-0.176 0.345-0.349 0.005-0.099-0.072-0.184-0.123-0.27-0.033-0.054-0.065-0.108-0.101-0.161-0.174-0.254-0.385-0.587-0.689-0.569z"></path>
<path fill="#000" style="fill: var(--color2, #000)" opacity="0.1" d="M21.41 18.889c-1.004 0.061-1.998-0.234-3.002-0.265-0.028-0.002-0.060-0.003-0.093-0.003-0.099 0-0.196 0.010-0.29 0.028l0.009-0.002c-0.129 0.029-0.25 0.087-0.369 0.143-0.539 0.251-1.097 0.459-1.654 0.666l-0.64 0.239c-0.128 0.048-0.26 0.096-0.397 0.088-0.061-0.004-0.136-0.013-0.17 0.038-0.104 0.154-0.055 0.381 0.014 0.553 0.022 0.056 0.061 0.117 0.12 0.123 0.042 0.004 0.081-0.020 0.123-0.031 0.117-0.031 0.233 0.047 0.353 0.060 0.148 0.016 0.286-0.069 0.425-0.12 0.232-0.086 0.485-0.083 0.729-0.123 0.409-0.068 0.788-0.258 1.142-0.474 0.135-0.082 0.271-0.171 0.426-0.201 0.178-0.035 0.361 0.011 0.536 0.061 0.504 0.143 0.912 0.285 1.31 0.448l-0.082-0.030c0.212 0.085 0.422 0.176 0.642 0.234 0.177 0.048 0.381 0.076 0.59 0.076 0.305 0 0.596-0.059 0.863-0.166l-0.016 0.006c0.16-0.064 0.335-0.176 0.345-0.349 0.005-0.099-0.072-0.184-0.123-0.27-0.033-0.054-0.065-0.108-0.101-0.161-0.174-0.254-0.385-0.587-0.689-0.569z"></path>
<path fill="#fbbebe" style="fill: var(--color9, #fbbebe)" d="M16.337 19.963q0.235 0.080 0.476 0.148c0.089-0.147 0.257-0.249 0.295-0.417 0.001-0.003 0.002-0.007 0.002-0.011 0-0.013-0.009-0.024-0.020-0.027v0c-0.107-0.061-0.234-0.1-0.37-0.109h-0.003c-0.103-0.006-0.15 0.101-0.197 0.177-0.019 0.030-0.141 0.255-0.183 0.24z"></path>
<path fill="#2f2e41" style="fill: var(--color10, #2f2e41)" d="M16.558 19.855c-0.097-0.017-0.179-0.073-0.23-0.151l-0.001-0.001c-0.022-0.039-0.046-0.092-0.090-0.088s-0.061 0.052-0.069 0.092c-0.034 0.171-0.079 0.321-0.136 0.464l0.006-0.018c-0.059 0.149-0.154 0.272-0.275 0.364l-0.002 0.002c-0.058 0.040-0.123 0.071-0.18 0.113-0.051 0.038-0.096 0.086-0.154 0.115-0.032 0.015-0.071 0.030-0.111 0.042l-0.006 0.001c-0.064 0.023-0.119 0.050-0.17 0.083l0.003-0.002c-0.046 0.027-0.085 0.064-0.113 0.108l-0.001 0.001c-0.016 0.024-0.025 0.054-0.025 0.085 0 0.025 0.006 0.048 0.016 0.069v-0.001c0.024 0.039 0.064 0.068 0.111 0.076h0.001c0.025 0.005 0.053 0.007 0.082 0.007 0.020 0 0.040-0.001 0.059-0.004h-0.002c0.183-0.014 0.366-0.031 0.549-0.046 0.085-0.005 0.164-0.016 0.24-0.033l-0.011 0.002c0.040-0.010 0.079-0.022 0.119-0.033 0.062-0.017 0.133-0.028 0.207-0.031h0.002c0.004 0 0.009-0.001 0.014-0.001 0.017 0 0.033 0.002 0.048 0.006h-0.001c0.042 0.014 0.072 0.056 0.116 0.065 0.005 0.001 0.011 0.001 0.017 0.001 0.023 0 0.046-0.004 0.066-0.012h-0.001c0.132-0.036 0.27-0.035 0.406-0.042 0.061-0.003 0.13-0.014 0.158-0.068 0.034-0.067-0.023-0.142-0.045-0.215-0.011-0.042-0.018-0.090-0.019-0.14v-0.001c-0.011-0.124-0.047-0.237-0.103-0.338l0.002 0.004c-0.046-0.085-0.11-0.18-0.077-0.272 0.011-0.031 0.033-0.061 0.031-0.092-0.010-0.147-0.349-0.097-0.432-0.114z"></path>
<path fill="#fbbebe" style="fill: var(--color9, #fbbebe)" d="M19.905 17.278c-0.178-0.080-0.319-0.22-0.398-0.393l-0.002-0.005c-0.017-0.038-0.031-0.078-0.047-0.116-0.055-0.132-0.137-0.243-0.238-0.331l-0.001-0.001c-0.021-0.023-0.052-0.038-0.085-0.038-0.001 0-0.003 0-0.004 0v0c-0.033 0.010-0.057 0.037-0.065 0.069v0.001c-0.006 0.021-0.009 0.046-0.009 0.071 0 0.013 0.001 0.026 0.003 0.038v-0.001c0.010 0.096 0.026 0.181 0.046 0.264l-0.003-0.013 0.049 0.222c0.007 0.037 0.017 0.070 0.032 0.102l-0.001-0.003c0.022 0.038 0.049 0.071 0.081 0.097h0.001c0.045 0.041 0.090 0.081 0.136 0.12 0.062 0.059 0.143 0.098 0.234 0.104h0.001c0.199 0.037 0.402 0.090 0.571 0.22-0.002 0 0-0.149-0.004-0.166-0.008-0.045-0.014-0.089-0.043-0.119-0.066-0.068-0.173-0.087-0.253-0.123z"></path>
<path fill="#000" style="fill: var(--color2, #000)" opacity="0.1" d="M19.905 17.278c-0.178-0.080-0.319-0.22-0.398-0.393l-0.002-0.005c-0.017-0.038-0.031-0.078-0.047-0.116-0.055-0.132-0.137-0.243-0.238-0.331l-0.001-0.001c-0.021-0.023-0.052-0.038-0.085-0.038-0.001 0-0.003 0-0.004 0v0c-0.033 0.010-0.057 0.037-0.065 0.069v0.001c-0.006 0.021-0.009 0.046-0.009 0.071 0 0.013 0.001 0.026 0.003 0.038v-0.001c0.010 0.096 0.026 0.181 0.046 0.264l-0.003-0.013 0.049 0.222c0.007 0.037 0.017 0.070 0.032 0.102l-0.001-0.003c0.022 0.038 0.049 0.071 0.081 0.097h0.001c0.045 0.041 0.090 0.081 0.136 0.12 0.062 0.059 0.143 0.098 0.234 0.104h0.001c0.199 0.037 0.402 0.090 0.571 0.22-0.002 0 0-0.149-0.004-0.166-0.008-0.045-0.014-0.089-0.043-0.119-0.066-0.068-0.173-0.087-0.253-0.123z"></path>
<path fill="#2f2e41" style="fill: var(--color10, #2f2e41)" d="M22.194 15.335c0 0.136-0.109 0.246-0.244 0.246s-0.244-0.11-0.244-0.246c0-0.136 0.109-0.246 0.244-0.246s0.244 0.11 0.244 0.246z"></path>
<path fill="#2f2e41" style="fill: var(--color10, #2f2e41)" d="M21.798 15.187c-0.066-0.007-0.14-0.013-0.193 0.028-0.028 0.024-0.050 0.054-0.065 0.088l-0.001 0.002c-0.051 0.086-0.094 0.185-0.125 0.29l-0.002 0.009c-0.022 0.090-0.026 0.184-0.053 0.272-0.050 0.164-0.178 0.302-0.193 0.472-0.006 0.076 0.006 0.166-0.049 0.218-0.013 0.011-0.027 0.021-0.042 0.030l-0.001 0.001c-0.039 0.026-0.071 0.059-0.095 0.098l-0.001 0.001c-0.018 0.037-0.041 0.068-0.068 0.094v0c-0.050 0.037-0.132 0.033-0.157 0.090s0.039 0.123 0.024 0.184c-0.012 0.050-0.068 0.073-0.107 0.108-0.050 0.044-0.073 0.11-0.092 0.173-0.032 0.006-0.069 0.010-0.107 0.010-0.137 0-0.263-0.048-0.361-0.127l0.001 0.001c0.068 0.168 0.069 0.353 0.073 0.535 0 0.059 0 0.125-0.043 0.166 0.195 0.004 0.384 0.057 0.574 0.1 0.083 0.019 0.173 0.035 0.25 0 0.045-0.024 0.083-0.055 0.114-0.092v-0.001c0.103-0.105 0.212-0.219 0.237-0.364 0.014-0.081 0-0.165 0.004-0.246 0.011-0.111 0.032-0.213 0.064-0.31l-0.003 0.010c0.050-0.178 0.089-0.388 0.109-0.604l0.001-0.014c0.011-0.128 0.123-0.232 0.181-0.347 0.111-0.217 0.223-0.443 0.232-0.687 0.004-0.081-0.024-0.179-0.105-0.188z"></path>
<path fill="#000" style="fill: var(--color2, #000)" opacity="0.1" d="M21.798 15.187c-0.066-0.007-0.14-0.013-0.193 0.028-0.028 0.024-0.050 0.054-0.065 0.088l-0.001 0.002c-0.051 0.086-0.094 0.185-0.125 0.29l-0.002 0.009c-0.022 0.090-0.026 0.184-0.053 0.272-0.050 0.164-0.178 0.302-0.193 0.472-0.006 0.076 0.006 0.166-0.049 0.218-0.013 0.011-0.027 0.021-0.042 0.030l-0.001 0.001c-0.039 0.026-0.071 0.059-0.095 0.098l-0.001 0.001c-0.018 0.037-0.041 0.068-0.068 0.094v0c-0.050 0.037-0.132 0.033-0.157 0.090s0.039 0.123 0.024 0.184c-0.012 0.050-0.068 0.073-0.107 0.108-0.050 0.044-0.073 0.11-0.092 0.173-0.032 0.006-0.069 0.010-0.107 0.010-0.137 0-0.263-0.048-0.361-0.127l0.001 0.001c0.068 0.168 0.069 0.353 0.073 0.535 0 0.059 0 0.125-0.043 0.166 0.195 0.004 0.384 0.057 0.574 0.1 0.083 0.019 0.173 0.035 0.25 0 0.045-0.024 0.083-0.055 0.114-0.092v-0.001c0.103-0.105 0.212-0.219 0.237-0.364 0.014-0.081 0-0.165 0.004-0.246 0.011-0.111 0.032-0.213 0.064-0.31l-0.003 0.010c0.050-0.178 0.089-0.388 0.109-0.604l0.001-0.014c0.011-0.128 0.123-0.232 0.181-0.347 0.111-0.217 0.223-0.443 0.232-0.687 0.004-0.081-0.024-0.179-0.105-0.188z"></path>
<path fill="#2f2e41" style="fill: var(--color10, #2f2e41)" d="M21.569 19.101c-0.209-0.1-0.362-0.285-0.531-0.444-0.323-0.303-0.718-0.518-1.057-0.802-0.225-0.188-0.426-0.408-0.673-0.565-0.205-0.132-0.45-0.222-0.713-0.251l-0.008-0.001c-0.010-0.002-0.022-0.003-0.035-0.003-0.019 0-0.038 0.003-0.055 0.008h0.001c-0.033 0.015-0.061 0.037-0.082 0.064v0c-0.105 0.118-0.201 0.249-0.284 0.388l-0.006 0.012c-0.43 0.73-1.041 1.345-1.548 2.023-0.017 0.017-0.027 0.040-0.027 0.065 0 0.022 0.008 0.042 0.021 0.058v0l0.103 0.202c0.057 0.113 0.15 0.246 0.274 0.222 0.057-0.010 0.102-0.052 0.144-0.092l0.946-0.905c0.284-0.271 0.573-0.549 0.758-0.896 0.144 0.251 0.401 0.415 0.578 0.646 0.067 0.087 0.123 0.184 0.181 0.277 0.096 0.148 0.205 0.287 0.314 0.426l0.556 0.71c0.076 0.097 0.154 0.195 0.257 0.261 0.132 0.083 0.292 0.105 0.447 0.119 0.159 0.015 0.343 0.024 0.529 0.024 0.035 0 0.070 0 0.104-0.001h-0.005c0.16-0.003 0.325-0.013 0.468-0.084s0.261-0.215 0.254-0.377c-0.010-0.088-0.038-0.168-0.082-0.238l0.001 0.002c-0.197-0.366-0.457-0.669-0.831-0.846z"></path>
<path fill="#e8e8f0" style="fill: var(--color11, #e8e8f0)" d="M22.288 15.505c0 0.104-0.084 0.189-0.188 0.189s-0.188-0.085-0.188-0.189c0-0.104 0.084-0.189 0.188-0.189s0.188 0.085 0.188 0.189z"></path>
<path fill="#fbbebe" style="fill: var(--color9, #fbbebe)" d="M22.058 15.363c0.024 0.047 0.038 0.102 0.038 0.161 0 0.039-0.006 0.077-0.018 0.113l0.001-0.003c-0.032 0.095-0.073 0.178-0.123 0.254l0.002-0.004c-0.047 0.085-0.099 0.158-0.158 0.225l0.001-0.001c0.29 0.014 0.571-0.1 0.827-0.238 0.206-0.111 0.411-0.248 0.523-0.455-0.017 0.004-0.036 0.007-0.056 0.007-0.051 0-0.098-0.016-0.136-0.043l0.001 0.001c-0.056-0.039-0.104-0.085-0.146-0.136l-0.001-0.001-0.146-0.164c-0.033-0.035-0.063-0.073-0.088-0.115l-0.002-0.003c-0.025-0.045-0.040-0.1-0.040-0.157 0-0.011 0.001-0.023 0.002-0.034v0.001c-0.057 0.060-0.12 0.112-0.189 0.157l-0.004 0.003c-0.104 0.068-0.219 0.117-0.323 0.184-0.037 0.024-0.119 0.061-0.098 0.11s0.105 0.085 0.134 0.136z"></path>
<path fill="#000" style="fill: var(--color2, #000)" opacity="0.1" d="M22.058 15.363c0.024 0.047 0.038 0.102 0.038 0.161 0 0.039-0.006 0.077-0.018 0.113l0.001-0.003c-0.032 0.095-0.073 0.178-0.123 0.254l0.002-0.004c-0.047 0.085-0.099 0.158-0.158 0.225l0.001-0.001c0.29 0.014 0.571-0.1 0.827-0.238 0.206-0.111 0.411-0.248 0.523-0.455-0.017 0.004-0.036 0.007-0.056 0.007-0.051 0-0.098-0.016-0.136-0.043l0.001 0.001c-0.056-0.039-0.104-0.085-0.146-0.136l-0.001-0.001-0.146-0.164c-0.033-0.035-0.063-0.073-0.088-0.115l-0.002-0.003c-0.025-0.045-0.040-0.1-0.040-0.157 0-0.011 0.001-0.023 0.002-0.034v0.001c-0.057 0.060-0.12 0.112-0.189 0.157l-0.004 0.003c-0.104 0.068-0.219 0.117-0.323 0.184-0.037 0.024-0.119 0.061-0.098 0.11s0.105 0.085 0.134 0.136z"></path>
<path fill="#c0392b" style="fill: var(--color12, #c0392b)" d="M22.062 15.392c-0.054 0.092-0.066 0.2 0 0.283 0.008 0.010 0.039 0.075 0.052 0.076 0.013-0.001 0.025-0.008 0.033-0.017v0c0.070-0.064 0.123-0.146 0.184-0.219s0.14-0.139 0.234-0.154c0.113-0.018 0.223 0.042 0.322 0.101 0.044 0.022 0.081 0.052 0.11 0.089l0.001 0.001c0.020 0.036 0.033 0.077 0.036 0.122v0.001c0.034 0.259 0.034 0.52 0.033 0.781 0 0.189 0 0.378-0.037 0.563-0.018 0.096-0.046 0.19-0.059 0.286-0.008 0.064-0.012 0.138-0.012 0.214 0 0.015 0 0.030 0.001 0.045v-0.002 0.359c0 0.010-0.001 0.022-0.001 0.035 0 0.057 0.005 0.113 0.015 0.168l-0.001-0.006c0.017 0.079 0.054 0.151 0.079 0.228 0.024 0.077 0.042 0.169 0.052 0.263l0.001 0.006 0.049 0.372c0.015 0.117 0.027 0.246-0.044 0.338-0.031 0.042-0.074 0.077-0.106 0.119-0.123 0.158-0.083 0.384-0.133 0.577-0.042 0.146-0.124 0.269-0.234 0.36l-0.001 0.001c-0.087 0.074-0.199 0.132-0.311 0.111-0.151-0.028-0.242-0.184-0.283-0.334s-0.056-0.31-0.145-0.436c-0.073-0.103-0.184-0.167-0.288-0.24s-0.202-0.168-0.224-0.292c-0.010-0.054-0.004-0.11-0.010-0.164-0.017-0.144-0.11-0.262-0.238-0.315l-0.003-0.001c-0.077-0.031-0.172-0.041-0.215-0.112 0.113-0.063 0.187-0.18 0.226-0.304s0.047-0.254 0.055-0.383l0.026-0.432c0.011-0.193 0.017-0.384 0.102-0.558 0.038-0.078 0.085-0.15 0.125-0.227 0.046-0.091 0.091-0.201 0.129-0.315l0.005-0.018c0.061-0.177 0.123-0.354 0.178-0.533 0.024-0.094 0.058-0.177 0.101-0.254l-0.003 0.005c0.044-0.075 0.112-0.173 0.199-0.189z"></path>
<path fill="#2f2e41" style="fill: var(--color10, #2f2e41)" d="M21.103 18.198l0.114 0.004 0.024-0.172c0.003-0.037 0.012-0.071 0.025-0.103l-0.001 0.002c0.020-0.037 0.042-0.068 0.067-0.097l-0.001 0.001c0.113-0.159 0.104-0.369 0.132-0.563 0.037-0.258 0.145-0.499 0.251-0.736l0.223-0.495c0.039-0.073 0.062-0.159 0.062-0.251 0-0.008 0-0.015 0-0.023v0.001c0.002-0.077 0.025-0.354 0.027-0.43 0-0.028-0.061-0.013-0.075-0.038-0.028-0.055-0.066 0.094-0.118 0.127s-0.081 0.092-0.103 0.149c-0.048 0.124-0.077 0.255-0.123 0.381s-0.107 0.249-0.207 0.338c-0.046 0.040-0.098 0.071-0.141 0.114-0.138 0.136-0.152 0.352-0.156 0.547-0.002 0.114-0.026 1.244 0.001 1.244z"></path>
<path fill="#2f2e41" style="fill: var(--color10, #2f2e41)" d="M22.749 15.186c-0.111 0.044-0.172 0.164-0.203 0.28s-0.044 0.239-0.104 0.343c-0.14 0.243-0.495 0.313-0.593 0.575-0.031 0.086-0.031 0.18-0.040 0.271-0.018 0.188-0.080 0.369-0.098 0.557-0.003 0.049-0.005 0.105-0.005 0.162 0 0.097 0.006 0.193 0.017 0.287l-0.001-0.011 0.123 1.481c0.018 0.215 0.018 0.444-0.037 0.651 0.126 0.024 0.257-0.008 0.373-0.061s0.223-0.126 0.335-0.188c0.193-0.107 0.406-0.182 0.575-0.324 0.031-0.024 0.056-0.052 0.077-0.084l0.001-0.001c0.034-0.058 0.037-0.129 0.053-0.195 0.017-0.060 0.036-0.111 0.058-0.16l-0.003 0.007c0.051-0.118 0.106-0.269 0.153-0.424l0.008-0.032c0.027-0.085 0.053-0.191 0.072-0.299l0.002-0.015c0.014-0.084 0.021-0.17 0.028-0.255 0.010-0.143 0.038-0.277 0.082-0.402l-0.003 0.011c0.103-0.277 0.168-0.598 0.181-0.932v-0.006c0.001-0.011 0.001-0.023 0.001-0.036 0-0.036-0.004-0.071-0.012-0.105l0.001 0.003c-0.021-0.060-0.046-0.112-0.077-0.16l0.002 0.003c-0.052-0.097-0.083-0.204-0.131-0.303-0.11-0.223-0.305-0.392-0.508-0.534-0.099-0.069-0.216-0.146-0.329-0.101z"></path>
<path fill="#fbbebe" style="fill: var(--color9, #fbbebe)" d="M20.152 17.602c-0.091-0.049-0.169-0.108-0.236-0.179v0c-0.031-0.036-0.057-0.077-0.088-0.113-0.078-0.083-0.179-0.143-0.294-0.169l-0.004-0.001c-0.094-0.022-0.202-0.034-0.312-0.034-0.011 0-0.023 0-0.034 0h0.002c-0.012-0.001-0.026-0.001-0.040-0.001-0.068 0-0.133 0.011-0.194 0.030l0.004-0.001c-0.075 0.025-0.132 0.086-0.151 0.162v0.002c-0.017 0.092 0.043 0.182 0.116 0.241 0.064 0.053 0.142 0.092 0.227 0.111l0.004 0.001c0.059 0.011 0.131 0.019 0.203 0.024h0.005c0.411 0.043 0.778 0.267 1.137 0.471q0.475 0.269 0.968 0.502c0.011-0.077 0.017-0.165 0.017-0.256 0-0.015 0-0.029 0-0.044v0.002c-0.002-0.074-0.006-0.187-0.076-0.231-0.081-0.051-0.215-0.061-0.307-0.092-0.246-0.081-0.451-0.166-0.648-0.263l0.029 0.013q-0.166-0.081-0.327-0.175z"></path>
<path fill="#fbbebe" style="fill: var(--color9, #fbbebe)" d="M22.156 13.847c0.391 0.103 0.625 0.505 0.521 0.899s-0.505 0.629-0.896 0.526c-0.391-0.103-0.625-0.505-0.521-0.899s0.505-0.629 0.896-0.526z"></path>
<path fill="#2f2e41" style="fill: var(--color10, #2f2e41)" d="M22.958 16.021c-0.065 0.076-0.098 0.175-0.142 0.265-0.090 0.186-0.232 0.346-0.303 0.541-0.075 0.205-0.073 0.449-0.219 0.611-0.026 0.028-0.056 0.055-0.064 0.092-0.001 0.025-0.004 0.048-0.008 0.070v-0.003c-0.021 0.058-0.117 0.061-0.135 0.121-0.005 0.018-0.002 0.037-0.009 0.054-0.015 0.038-0.065 0.044-0.1 0.068-0.071 0.048-0.057 0.16-0.108 0.23-0.036 0.042-0.088 0.068-0.147 0.068-0.013 0-0.026-0.001-0.039-0.004h0.001c-0.072-0.015-0.135-0.040-0.193-0.073l0.003 0.002c-0.020-0.011-0.043-0.019-0.068-0.021h-0.001c-0.030 0.001-0.057 0.011-0.079 0.027v0c-0.135 0.086-0.199 0.257-0.198 0.418s0.056 0.316 0.113 0.467c0.008 0.027 0.021 0.050 0.038 0.070v0c0.045 0.047 0.123 0.040 0.183 0.014s0.114-0.068 0.178-0.080c0.113-0.021 0.224 0.057 0.338 0.051 0.084-0.005 0.159-0.054 0.229-0.101 0.112-0.076 0.226-0.154 0.307-0.261 0.050-0.066 0.087-0.14 0.131-0.211 0.061-0.093 0.122-0.173 0.187-0.249l-0.003 0.003 0.422-0.517c0.040-0.046 0.078-0.098 0.111-0.152l0.003-0.005c0.035-0.068 0.066-0.146 0.087-0.228l0.002-0.008c0.040-0.138 0.081-0.277 0.088-0.421 0-0.010 0-0.021 0-0.033 0-0.113-0.011-0.224-0.033-0.33l0.002 0.011c-0.016-0.125-0.048-0.238-0.095-0.343l0.003 0.008c-0.087-0.192-0.31-0.35-0.483-0.148z"></path>
<path fill="#3f3d56" style="fill: var(--color3, #3f3d56)" d="M24.236 15.692c0.018-0.064 0.028-0.138 0.028-0.214 0-0.198-0.070-0.38-0.187-0.523l0.001 0.001c0.112-0.479-0.132-0.958-0.563-1.135 0.015-0.449-0.269-0.861-0.707-0.976-0.455-0.12-0.922 0.121-1.119 0.548-0.277-0.144-0.569-0.128-0.666 0.041-0.101 0.176 0.051 0.454 0.338 0.62 0.084 0.050 0.183 0.088 0.287 0.108l0.006 0.001c0.092 0.255 0.282 0.456 0.524 0.559l0.006 0.002c-0.001 0.012-0.001 0.026-0.001 0.041 0 0.366 0.202 0.686 0.5 0.853l0.005 0.003c0.019 0.133 0.067 0.252 0.138 0.354l-0.002-0.003c-0.007 0.018-0.015 0.040-0.021 0.063l-0.001 0.004c-0.090 0.343 0.105 0.691 0.436 0.778s0.673-0.12 0.763-0.463c0.014-0.050 0.022-0.108 0.022-0.168 0-0.040-0.003-0.078-0.010-0.116l0.001 0.004c0.103-0.102 0.18-0.232 0.218-0.376l0.001-0.006z"></path>
<path fill="#000" style="fill: var(--color2, #000)" opacity="0.1" d="M21.214 13.524c0.097-0.169 0.389-0.184 0.666-0.041 0.196-0.427 0.663-0.668 1.119-0.548 0.021 0.005 0.041 0.012 0.061 0.018-0.072-0.045-0.156-0.082-0.244-0.106l-0.006-0.002c-0.455-0.12-0.922 0.121-1.119 0.548-0.277-0.144-0.569-0.128-0.666 0.041-0.101 0.176 0.051 0.454 0.338 0.62 0.048 0.028 0.104 0.054 0.163 0.075l0.007 0.002c-0.275-0.168-0.417-0.435-0.318-0.607z"></path>
<path fill="#000" style="fill: var(--color2, #000)" opacity="0.1" d="M22.994 16.128c0.007-0.027 0.014-0.050 0.023-0.072l-0.001 0.004c-0.069-0.099-0.117-0.219-0.136-0.347v-0.004c-0.303-0.17-0.505-0.489-0.505-0.855 0-0.014 0-0.029 0.001-0.043v0.002c-0.248-0.106-0.438-0.306-0.528-0.555l-0.002-0.007c-0.066-0.012-0.125-0.030-0.181-0.053l0.006 0.002c0.097 0.237 0.28 0.423 0.509 0.52l0.006 0.002c-0.001 0.012-0.001 0.026-0.001 0.041 0 0.366 0.202 0.686 0.5 0.853l0.005 0.003c0.019 0.133 0.067 0.252 0.138 0.354l-0.002-0.003c-0.007 0.018-0.015 0.040-0.021 0.063l-0.001 0.004c-0.090 0.342 0.104 0.689 0.433 0.777-0.162-0.118-0.265-0.306-0.265-0.519 0-0.060 0.008-0.118 0.024-0.173l-0.001 0.005z"></path>
<path fill="#fbbebe" style="fill: var(--color9, #fbbebe)" d="M22.284 14.624c0.050 0.066 0.051 0.151 0.001 0.188s-0.131 0.014-0.181-0.052c-0.050-0.066-0.051-0.151-0.001-0.188s0.131-0.014 0.181 0.052z"></path>
<path fill="#3f3d56" style="fill: var(--color3, #3f3d56)" d="M13.774 7.825c0 0.277-0.224 0.501-0.501 0.501s-0.501-0.224-0.501-0.501c0-0.277 0.224-0.501 0.501-0.501s0.501 0.224 0.501 0.501z"></path>
<path fill="#3f3d56" style="fill: var(--color3, #3f3d56)" d="M15.765 8.936c0 1.005-0.629 1.82-1.405 1.82s-1.405-0.815-1.405-1.82c0-1.005 0.629-1.82 1.405-1.82s1.405 0.815 1.405 1.82z"></path>
<path fill="#000" style="fill: var(--color2, #000)" opacity="0.1" d="M14.36 10.206c-0.704 0-1.286-0.67-1.389-1.545-0.010 0.082-0.016 0.178-0.016 0.275 0 0 0 0 0 0v0c0 1.005 0.629 1.82 1.405 1.82s1.405-0.815 1.405-1.82c0 0 0 0 0 0 0-0.097-0.006-0.192-0.017-0.286l0.001 0.011c-0.102 0.876-0.685 1.545-1.389 1.545z"></path>
<path fill="#3f3d56" style="fill: var(--color3, #3f3d56)" d="M17.353 14.266c-0.031 0.123-0.16 0.223-0.304 0.292-0.303 0.146-0.676 0.189-1.039 0.204-0.032 0.002-0.068 0.003-0.106 0.003-0.060 0-0.12-0.003-0.178-0.009l0.007 0.001c-0.19-0.022-0.366-0.103-0.475-0.219-0.015-0.012-0.026-0.030-0.031-0.049v-0.001c0.002-0.025 0.013-0.046 0.031-0.061v0c0.193-0.211 0.515-0.341 0.839-0.433 0.246-0.071 0.674-0.255 0.943-0.23 0.261 0.022 0.351 0.345 0.313 0.501z"></path>
<path fill="#000" style="fill: var(--color2, #000)" opacity="0.1" d="M17.353 14.266c-0.031 0.123-0.16 0.223-0.304 0.292-0.303 0.146-0.676 0.189-1.039 0.204-0.032 0.002-0.068 0.003-0.106 0.003-0.060 0-0.12-0.003-0.178-0.009l0.007 0.001c-0.19-0.022-0.366-0.103-0.475-0.219-0.015-0.012-0.026-0.030-0.031-0.049v-0.001c0.002-0.025 0.013-0.046 0.031-0.061v0c0.193-0.211 0.515-0.341 0.839-0.433 0.246-0.071 0.674-0.255 0.943-0.23 0.261 0.022 0.351 0.345 0.313 0.501z"></path>
<path fill="#605d82" style="fill: var(--color13, #605d82)" d="M13.502 13.339c-0.053 0.101-0.084 0.221-0.084 0.348 0 0.084 0.014 0.165 0.039 0.241l-0.002-0.005c0.067 0.197 0.186 0.362 0.341 0.483l0.002 0.002c0.393 0.315 0.931 0.358 1.433 0.354 0.469-0.004 0.925-0.037 1.373-0.097l-0.056 0.006c0.145-0.019 0.292-0.041 0.427-0.099 0.164-0.071 0.307-0.201 0.366-0.369s0.017-0.376-0.123-0.488c-0.123-0.099-0.29-0.113-0.446-0.123l-0.896-0.054c0.089-0.090 0.206-0.14 0.314-0.205 0.143-0.087 0.238-0.232 0.342-0.362 0.154-0.195 0.338-0.366 0.523-0.536 0.031 0.167 0.135 0.305 0.259 0.42s0.268 0.208 0.398 0.318c0.314 0.266 0.539 0.628 0.869 0.874 0.239-0.064 0.448-0.171 0.627-0.314l-0.003 0.003-0.128-0.232c-0.011-0.025-0.027-0.046-0.048-0.061v0c-0.037-0.022-0.083-0.011-0.125-0.017-0.113-0.017-0.162-0.147-0.206-0.252-0.121-0.288-0.354-0.512-0.553-0.753-0.138-0.167-0.265-0.354-0.376-0.552l-0.010-0.019c-0.067-0.12-0.128-0.246-0.218-0.35s-0.217-0.184-0.355-0.184c-0.123 0-0.234 0.061-0.338 0.123-0.352 0.21-0.651 0.417-0.937 0.64l0.020-0.015c-0.154 0.119-0.305 0.244-0.485 0.317-0.076 0.031-0.154 0.052-0.228 0.089-0.127 0.065-0.223 0.176-0.327 0.274-0.37 0.35-0.877 0.577-1.386 0.595z"></path>
<path fill="#fbbebe" style="fill: var(--color9, #fbbebe)" d="M15.376 10.846c-0.004 0.113-0.029 0.22-0.070 0.318l0.002-0.006c-0.042 0.1-0.122 0.177-0.221 0.214l-0.003 0.001c-0.037 0.010-0.080 0.016-0.124 0.016-0.033 0-0.066-0.003-0.097-0.010l0.003 0.001c-0.067-0.007-0.127-0.029-0.18-0.063l0.002 0.001c-0.084-0.058-0.126-0.161-0.141-0.262s-0.008-0.204-0.018-0.305c-0.011-0.092-0.027-0.175-0.050-0.255l0.003 0.012c-0.006-0.026-0.013-0.053-0.020-0.079s-0.013-0.053-0.018-0.079-0.010-0.050-0.015-0.075-0.007-0.042-0.009-0.064c-0.002-0.067-0.013-0.131-0.032-0.192l0.001 0.005c-0.019-0.042-0.041-0.079-0.066-0.112l0.001 0.001c-0.011-0.016-0.022-0.031-0.031-0.048-0.024-0.036-0.039-0.080-0.039-0.127 0-0.006 0-0.013 0.001-0.019v0.001c0.001-0.009 0.003-0.017 0.006-0.024v0.001c0.001-0.003 0.002-0.006 0.004-0.009v0c0.022-0.006 0.040-0.023 0.047-0.044v-0.001c0.001-0.007 0.002-0.015 0.002-0.024 0-0.016-0.003-0.032-0.008-0.046v0.001c-0.010-0.034-0.023-0.063-0.038-0.091l0.001 0.002c-0.010-0.018-0.045-0.052-0.045-0.073 0-0.043 0.083-0.077 0.117-0.094 0.085-0.043 0.185-0.069 0.291-0.069 0.015 0 0.030 0.001 0.044 0.002h-0.002c0.074 0.005 0.154 0.028 0.195 0.090 0.037 0.056 0.031 0.128 0.048 0.193 0.002 0.010 0.006 0.019 0.011 0.026v0c0.008 0.007 0.018 0.012 0.029 0.013v0c0.010 0.002 0.022 0.003 0.034 0.003 0.007 0 0.014 0 0.022-0.001h-0.001c0.005 0 0.010-0.001 0.015-0.002h-0.001c0.030-0.006 0.056-0.018 0.079-0.034h-0.001c0.015-0.004 0.031-0.007 0.046-0.010h0.002c0.061 0.193 0.069 0.4 0.119 0.597 0.025 0.098 0.061 0.194 0.065 0.295 0 0.004 0 0.009 0 0.013 0 0.033-0.002 0.065 0 0.097 0.001 0.016 0.002 0.030 0.005 0.045v-0.002c0.007 0.028 0.014 0.050 0.022 0.072l-0.001-0.005c0.002 0.007 0.004 0.014 0.006 0.022 0.001 0.004 0.003 0.009 0.004 0.015v0.001c0.005 0.028 0.008 0.061 0.008 0.094 0 0.026-0.002 0.051-0.005 0.075v-0.003z"></path>
<path fill="#fbbebe" style="fill: var(--color9, #fbbebe)" d="M15.24 8.863c0 0.398-0.323 0.721-0.721 0.721s-0.721-0.323-0.721-0.721c0-0.398 0.323-0.721 0.721-0.721s0.721 0.323 0.721 0.721z"></path>
<path fill="#fbbebe" style="fill: var(--color9, #fbbebe)" d="M19.094 12.789c-0.023-0.207-0.095-0.393-0.206-0.551l0.003 0.004 0.056 0.334c-0.010 0.003-0.022 0.005-0.034 0.005-0.039 0-0.073-0.017-0.096-0.045v0c-0.029-0.036-0.053-0.078-0.068-0.124l-0.001-0.003c-0.089-0.218-0.196-0.407-0.324-0.579l0.005 0.007c-0.459-0.038-0.912-0.228-1.316-0.45s-0.781-0.487-1.179-0.718c-0.060-0.037-0.131-0.074-0.204-0.106l-0.011-0.004c-0.124-0.050-0.264-0.076-0.382-0.134l-0.024-0.013c-0.029-0.016-0.053-0.032-0.076-0.051l0.001 0.001c-0.013-0.011-0.025-0.022-0.036-0.033v0c-0.057-0.066-0.104-0.142-0.136-0.226l-0.002-0.005c-0.063-0.14-0.086-0.31-0.149-0.45 0.028-0.026 0.060-0.049 0.094-0.067l0.002-0.001 0.015-0.008c0.022-0.011 0.048-0.020 0.074-0.027l0.003-0.001c0.015-0.004 0.031-0.007 0.046-0.010h0.002c0.022-0.004 0.047-0.006 0.072-0.006 0.051 0 0.099 0.008 0.145 0.024l-0.003-0.001c0.1 0.034 0.184 0.102 0.269 0.166 0.134 0.101 0.273 0.196 0.394 0.312 0.069 0.067 0.133 0.14 0.208 0.2 0.057 0.044 0.121 0.088 0.188 0.126l0.008 0.004 1.215 0.724c0.137 0.081 0.274 0.163 0.409 0.25 0.204 0.131 0.4 0.274 0.596 0.416l0.347 0.251c0.039 0.025 0.071 0.056 0.098 0.091l0.001 0.001c0.023 0.038 0.038 0.083 0.043 0.132v0.001c0.009 0.055 0.014 0.119 0.014 0.183 0 0.136-0.022 0.267-0.064 0.39l0.003-0.009z"></path>
<path fill="#c0392b" style="fill: var(--color12, #c0392b)" d="M15.555 11.388c-0.049 0.218-0.269 0.35-0.384 0.541-0.143 0.238-0.085 0.514-0.031 0.786l-0.295 0.254c-0.054 0.046-0.108 0.092-0.167 0.134-0.075 0.052-0.163 0.103-0.254 0.148l-0.013 0.006-0.261 0.134c-0.073 0.042-0.158 0.079-0.247 0.106l-0.009 0.002c-0.172 0.044-0.354 0.013-0.523-0.037-0.022-0.006-0.041-0.014-0.058-0.024l0.001 0.001c-0.011-0.007-0.020-0.015-0.027-0.024v0c-0.012-0.021-0.019-0.047-0.019-0.074 0-0.009 0.001-0.017 0.002-0.026v0.001c0.017-0.285 0.087-0.565 0.156-0.842 0.042-0.19 0.093-0.354 0.156-0.511l-0.008 0.022c0.070-0.155 0.14-0.284 0.218-0.408l-0.008 0.014c0.092-0.156 0.184-0.313 0.307-0.447 0.053-0.058 0.111-0.113 0.143-0.184 0.043-0.099 0.026-0.212 0.035-0.32 0.007-0.086 0.030-0.165 0.065-0.237l-0.002 0.004c0.021-0.043 0.043-0.079 0.069-0.114l-0.001 0.002c0.012 0.028 0.024 0.055 0.036 0.083l0.023 0.054c0.010 0.023 0.020 0.046 0.031 0.069q0.043 0.099 0.085 0.198c0.033 0.088 0.077 0.165 0.131 0.232l-0.001-0.002c0.059 0.066 0.145 0.115 0.233 0.105 0.085-0.015 0.157-0.066 0.198-0.137l0.001-0.001c0.039-0.067 0.069-0.145 0.087-0.228l0.001-0.005c0.013-0.053 0.021-0.113 0.021-0.176 0-0.045-0.004-0.090-0.012-0.133l0.001 0.005c-0.031-0.195-0.112-0.393-0.172-0.574-0.023-0.056-0.038-0.12-0.042-0.188v-0.001c0 0 0 0 0-0.001 0-0.008 0.001-0.015 0.002-0.022v0.001-0.006c0.022-0.011 0.048-0.020 0.074-0.027l0.003-0.001c0.015-0.004 0.031-0.007 0.046-0.010q0.079 0.43 0.159 0.859c0 0.007 0.003 0.014 0.004 0.020 0.007 0.041 0.015 0.082 0.024 0.123s0.016 0.074 0.025 0.111v0c0.003 0.012 0.006 0.025 0.010 0.037v0c0.010 0.034 0.020 0.067 0.031 0.1 0.075 0.201 0.2 0.401 0.154 0.607z"></path>
<path fill="#2f2e41" style="fill: var(--color10, #2f2e41)" d="M18.48 14.452c0 0.005 0 0.010 0 0.016 0 0.039 0.009 0.076 0.025 0.109l-0.001-0.002c0.045 0.082 0.154 0.101 0.246 0.109 0.18 0.016 0.389 0.025 0.6 0.025 0.367 0 0.728-0.027 1.080-0.079l-0.040 0.005c0.031-0.002 0.060-0.012 0.084-0.027l-0.001 0.001c0.077-0.054 0.031-0.186-0.055-0.228s-0.184-0.031-0.277-0.050c-0.098-0.025-0.185-0.064-0.263-0.115l0.003 0.002q-0.281-0.162-0.553-0.338c-0.108-0.070-0.237-0.144-0.359-0.103-0.332 0.112-0.493 0.319-0.491 0.676z"></path>
<path fill="#fbbebe" style="fill: var(--color9, #fbbebe)" d="M14.447 10.336v0l-0.008 0.040c-0.015 0.077-0.034 0.154-0.055 0.231-0.059 0.212-0.137 0.421-0.215 0.626l-0.627 1.654c-0.053 0.139-0.105 0.277-0.165 0.414-0.020 0.045-0.041 0.092-0.061 0.137-0.073 0.165-0.144 0.336-0.168 0.512-0.015 0.117-0.031 0.235-0.008 0.351s0.092 0.228 0.203 0.271c0.053 0.021 0.13 0.049 0.115 0.104-0.008 0.031-0.042 0.046-0.074 0.050-0.014 0.002-0.029 0.004-0.045 0.004-0.072 0-0.137-0.027-0.187-0.071v0c-0.058-0.052-0.104-0.133-0.181-0.141-0.054-0.006-0.103 0.026-0.154 0.049-0.201 0.092-0.436 0.028-0.647-0.038 0.017-0.085 0.103-0.142 0.188-0.159s0.174-0.005 0.261-0.007c0.002 0 0.005 0 0.007 0 0.027 0 0.052-0.008 0.073-0.021h-0.001c0.021-0.019 0.036-0.043 0.044-0.071v-0.001c0.051-0.144 0.094-0.316 0.122-0.493l0.002-0.017c0.028-0.181 0.040-0.365 0.080-0.544 0.031-0.14 0.079-0.275 0.12-0.412 0.067-0.222 0.135-0.51 0.188-0.804l0.008-0.053c0.023-0.101 0.043-0.225 0.054-0.351l0.001-0.012c0.007-0.101 0.004-0.204 0.014-0.304 0.018-0.147 0.047-0.278 0.086-0.405l-0.004 0.017c0.037-0.139 0.075-0.277 0.112-0.415 0.055-0.205 0.115-0.417 0.255-0.576 0.096-0.11 0.234-0.18 0.388-0.186h0.001c0.001 0 0.001 0 0.002 0 0.029 0 0.057 0.003 0.084 0.009h-0.002l0.014 0.003c0.032 0.008 0.060 0.020 0.086 0.036l-0.001-0.001c0.043-0.028 0.065-0.018 0.094 0.024 0.022 0.038 0.035 0.084 0.035 0.133 0 0.005 0 0.010 0 0.015v-0.001c0 0.010 0 0.022 0 0.034 0 0.13-0.012 0.258-0.035 0.381l0.002-0.013z"></path>
<path fill="#c0392b" style="fill: var(--color12, #c0392b)" d="M14.495 10.499l-0.11 0.11-0.048-0.202-0.165-0.693c0.001 0 0.001 0 0.002 0 0.029 0 0.057 0.003 0.084 0.009h-0.002c0.001-0.009 0.003-0.017 0.006-0.024v0.001l0.008 0.027 0.056 0.19 0.124 0.421z"></path>
<path fill="#3f3d56" style="fill: var(--color3, #3f3d56)" d="M14.22 7.8h0.826c0.204 0 0.369 0.165 0.369 0.369v0.239c0 0.204-0.165 0.369-0.369 0.369h-0.826c-0.204 0-0.369-0.165-0.369-0.369v-0.239c0-0.204 0.165-0.369 0.369-0.369z"></path>
<path fill="#3f3d56" style="fill: var(--color3, #3f3d56)" d="M16.006 7.825c0 0.277-0.224 0.501-0.501 0.501s-0.501-0.224-0.501-0.501c0-0.277 0.224-0.501 0.501-0.501s0.501 0.224 0.501 0.501z"></path>
<path fill="#000" style="fill: var(--color2, #000)" opacity="0.1" d="M15.493 7.324h-0.018c0.267 0.012 0.479 0.231 0.479 0.5s-0.212 0.488-0.478 0.5h0.017c0.277 0 0.501-0.224 0.501-0.501s-0.224-0.501-0.501-0.501v0z"></path>
<path fill="#000" style="fill: var(--color2, #000)" opacity="0.1" d="M13.273 7.324h0.018c-0.267 0.012-0.479 0.231-0.479 0.5s0.212 0.488 0.478 0.5h-0.017c-0.277 0-0.501-0.224-0.501-0.501s0.224-0.501 0.501-0.501v0z"></path>
<path fill="#000" style="fill: var(--color2, #000)" opacity="0.1" d="M15.429 8.679h-1.269c0 0 0 0 0 0-0.081 0-0.146-0.065-0.147-0.146v0 0.097c0 0.081 0.066 0.146 0.147 0.147h1.27c0.081 0 0.146-0.066 0.147-0.147v-0.097c0 0.081-0.066 0.146-0.147 0.146 0 0-0.001 0-0.001 0v0z"></path>
<path fill="#ffe09c" style="fill: var(--color5, #ffe09c)" d="M19.734 13.805s0.079 0.014 0.092-0.050c0.006-0.031-0.015-0.228-0.040-0.425-0.012-0.097-0.025-0.194-0.035-0.271-0.013-0.095-0.022-0.16-0.022-0.16l-0.014-0.048-0.166-0.558-0.059-0.106-0.427 0.208-0.266 0.459 0.082 0.052 0.014 0.009 0.152 0.159 0.638 0.67z"></path>
<path fill="#e7c4c3" style="fill: var(--color6, #e7c4c3)" d="M19.399 12.003s-0.468 0.219-0.58 0.458c0 0-0.105 0.201-0.118 0.307 0 0-0.031 0.097 0.163 0.121 0 0 0.088-0.358 0.353-0.514l0.265-0.155z"></path>
<path fill="#ff7f8e" style="fill: var(--color7, #ff7f8e)" d="M19.431 12.365c0.072 0.019 0.112 0.104 0.089 0.189s-0.1 0.138-0.172 0.119c-0.072-0.019-0.112-0.104-0.089-0.189s0.1-0.138 0.172-0.119z"></path>
<path fill="#ff7f8e" style="fill: var(--color7, #ff7f8e)" d="M19.381 12.922c0.072 0.019 0.112 0.103 0.089 0.188s-0.099 0.138-0.171 0.119c-0.072-0.019-0.112-0.103-0.089-0.188s0.099-0.138 0.171-0.119z"></path>
<path fill="#ff7f8e" style="fill: var(--color7, #ff7f8e)" d="M19.045 13.072c0.049-0.020 0.086-0.063 0.099-0.114v-0.001c0.023-0.085-0.017-0.169-0.089-0.188s-0.148 0.034-0.171 0.119c-0.002 0.005-0.003 0.011-0.004 0.017v0.001l0.014 0.009z"></path>
<path fill="#ff7f8e" style="fill: var(--color7, #ff7f8e)" d="M19.617 12.867c0.009 0.002 0.019 0.004 0.030 0.004 0.026 0 0.050-0.008 0.070-0.022v0l-0.085-0.287c-0.051 0.019-0.090 0.062-0.103 0.115v0.001c-0.022 0.086 0.018 0.169 0.089 0.188z"></path>
<path fill="#ff7f8e" style="fill: var(--color7, #ff7f8e)" d="M19.666 13.364c0.009 0.002 0.019 0.003 0.030 0.003 0.036 0 0.068-0.014 0.092-0.038v0c-0.012-0.097-0.025-0.194-0.035-0.271h-0.004c-0.072-0.019-0.148 0.034-0.171 0.119s0.018 0.168 0.089 0.187z"></path>
<path fill="#ff7f8e" style="fill: var(--color7, #ff7f8e)" d="M19.661 13.718c0.008-0.014 0.015-0.030 0.020-0.046v-0.001c0.023-0.085-0.017-0.169-0.089-0.188-0.009-0.002-0.020-0.004-0.031-0.004-0.036 0-0.069 0.015-0.092 0.039v0z"></path>
<path fill="#94cc79" style="fill: var(--color8, #94cc79)" d="M19.45 12.432l0.049 0.013c-0.018 0.033-0.031 0.073-0.033 0.114v0.001c0 0.001 0 0.003 0 0.004s0 0.003 0 0.004v0c0.006 0.051-0.049-0.013-0.049-0.013s0.010-0.104 0.034-0.123z"></path>
<path fill="#94cc79" style="fill: var(--color8, #94cc79)" d="M19.226 12.749l0.049 0.013c-0.019 0.033-0.031 0.072-0.033 0.114v0.001c0 0.001 0 0.003 0 0.004s0 0.003 0 0.004v0c0.006 0.051-0.049-0.013-0.049-0.013s0.009-0.104 0.033-0.123z"></path>
<path fill="#94cc79" style="fill: var(--color8, #94cc79)" d="M19.379 12.854l0.049 0.013c-0.018 0.033-0.031 0.073-0.033 0.114v0.001c0 0.001 0 0.003 0 0.004s0 0.003 0 0.004v0c0.007 0.051-0.049-0.013-0.049-0.013s0.010-0.104 0.034-0.123z"></path>
<path fill="#94cc79" style="fill: var(--color8, #94cc79)" d="M19.576 13.119l0.049 0.013c-0.019 0.033-0.031 0.073-0.033 0.114v0.001c0 0.001 0 0.003 0 0.004s0 0.003 0 0.004v0c0.006 0.051-0.049-0.013-0.049-0.013s0.010-0.104 0.033-0.123z"></path>
<path fill="#94cc79" style="fill: var(--color8, #94cc79)" d="M19.698 13.554l0.049 0.013c-0.018 0.033-0.030 0.072-0.033 0.114v0.001c0 0.001 0 0.003 0 0.004s0 0.003 0 0.004v0c0.007 0.051-0.049-0.013-0.049-0.013s0.010-0.104 0.034-0.123z"></path>
<path fill="#94cc79" style="fill: var(--color8, #94cc79)" d="M19.431 13.25l0.049 0.013c-0.019 0.034-0.030 0.073-0.033 0.116v0.001c0 0.001 0 0.003 0 0.004s0 0.003 0 0.004v0c0.006 0.051-0.049-0.013-0.049-0.013s0.009-0.106 0.033-0.125z"></path>
<path fill="#e7c4c3" style="fill: var(--color6, #e7c4c3)" d="M19.551 12.043s-0.070-0.16-0.154-0.041c0.008 0.102 0.041 0.194 0.093 0.273l-0.001-0.002s0.255 0.693 0.234 0.799c0 0 0.101 0.669 0.076 0.707 0 0 0.028 0.047 0.047-0.131s-0.067-0.701-0.067-0.701l-0.126-0.543-0.085-0.184z"></path>
<path fill="#fff" style="fill: var(--color4, #fff)" opacity="0.2" d="M19.551 12.043s-0.070-0.16-0.154-0.041c0.008 0.102 0.041 0.194 0.093 0.273l-0.001-0.002s0.255 0.693 0.234 0.799c0 0 0.101 0.669 0.076 0.707 0 0 0.028 0.047 0.047-0.131s-0.067-0.701-0.067-0.701l-0.126-0.543-0.085-0.184z"></path>
<path fill="#fbbebe" style="fill: var(--color9, #fbbebe)" d="M18.705 12.308s0.126 0.364 0.242 0.267l-0.092-0.476z"></path>
<path fill="#a0616a" style="fill: var(--color14, #a0616a)" d="M10.064 13.803s1.114 1.877 1.375 2.128c0 0 1.113 1.156 0.547 1.076-0.041-0.006-0.856-0.695-0.904-0.808s-1.588-2.115-1.588-2.115l0.22-0.202z"></path>
<path fill="#000" style="fill: var(--color2, #000)" opacity="0.1" d="M10.064 13.803s1.114 1.877 1.375 2.128c0 0 1.113 1.156 0.547 1.076-0.041-0.006-0.856-0.695-0.904-0.808s-1.588-2.115-1.588-2.115l0.22-0.202z"></path>
<path fill="#2f2e41" style="fill: var(--color10, #2f2e41)" d="M11.084 19.934s-0.357 0.446-0.208 0.624 0.89 0.519 1.129 0.505c0.253-0.015 1.1 0.031 1.129-0.357 0 0 0.059-0.178-0.713-0.208s-0.535-0.832-0.535-0.832z"></path>
<path fill="#605d82" style="fill: var(--color13, #605d82)" d="M6.834 16.16s-0.357 1.218 0.713 1.426l1.159-0.059s1.634-0.327 2.080-0.089c0 0 0.178 0.031 0.119 0.267s0.089 1.843 0.089 1.843v0.535s1.010 0 1.129-0.119c0 0-0.089-0.476 0-0.861s-0.148-1.605-0.148-1.605l-0.024-0.732c-0.004-0.19-0.111-0.354-0.267-0.439l-0.003-0.001c-0.053-0.029-0.115-0.046-0.182-0.046v0s-2.021-0.327-2.734-0.267-1.932 0.148-1.932 0.148z"></path>
<path fill="#c0392b" style="fill: var(--color12, #c0392b)" d="M8.825 12.266s0.535 0.624 0.594 0.832 0.714 0.742 0.714 0.742-0.476 0.357-0.386 0.535-0.624-0.594-0.624-0.594l-0.834-1.218z"></path>
<path fill="#000" style="fill: var(--color2, #000)" opacity="0.1" d="M8.825 12.266s0.535 0.624 0.594 0.832 0.714 0.742 0.714 0.742-0.476 0.357-0.386 0.535-0.624-0.594-0.624-0.594l-0.834-1.218z"></path>
<path fill="#a0616a" style="fill: var(--color14, #a0616a)" d="M9.181 11.553s-0.267 0.861-0.267 1.189-1.129-0.089-1.1-0.267 0.654-0.832 0.684-1.1 0.683 0.178 0.683 0.178z"></path>
<path fill="#000" style="fill: var(--color2, #000)" opacity="0.1" d="M8.289 12.147s-1.040-0.267-1.189 1.248 0.119 1.694-0.327 2.615 3.031 0.119 3.031 0.119-0.178-0.208-0.743-0.119l-0.267-0.802s-0.089-0.357 0.416-0.357 0.267-1.040 0.267-1.040-0.267-0.891-0.416-0.981-0.415-0.624-0.773-0.684z"></path>
<path fill="#c0392b" style="fill: var(--color12, #c0392b)" d="M8.289 12.088s-1.040-0.267-1.189 1.248 0.119 1.694-0.327 2.615 3.031 0.119 3.031 0.119-0.178-0.208-0.743-0.119l-0.267-0.802s-0.088-0.356 0.417-0.356 0.267-1.040 0.267-1.040-0.267-0.891-0.416-0.981-0.416-0.625-0.773-0.684z"></path>
<path fill="#a0616a" style="fill: var(--color14, #a0616a)" d="M9.895 11.107c0 0.542-0.439 0.981-0.981 0.981s-0.981-0.439-0.981-0.981c0-0.542 0.439-0.981 0.981-0.981s0.981 0.439 0.981 0.981z"></path>
<path fill="#dadae5" style="fill: var(--color15, #dadae5)" d="M8.725 16.128l2.464 1.473 2.293-2.136-2.733-0.952-1.967 1.339-0.057 0.276z"></path>
<path fill="#dadae5" style="fill: var(--color15, #dadae5)" d="M11.633 12.005l-0.767 2.281 2.543 0.731 1.085-3.084-2.861 0.072z"></path>
<path fill="#000" style="fill: var(--color2, #000)" opacity="0.03" d="M11.428 11.837l0.208 0.19 2.861-0.072 0.066-0.187-3.135 0.069z"></path>
<path fill="#000" style="fill: var(--color2, #000)" opacity="0.03" d="M10.673 14.155l0.755-2.318 0.208 0.19-0.748 2.224-0.216-0.096z"></path>
<path fill="#eff0f4" style="fill: var(--color16, #eff0f4)" d="M11.425 11.815l0.208 0.19 2.861-0.072 0.066-0.187-3.135 0.069z"></path>
<path fill="#eff0f4" style="fill: var(--color16, #eff0f4)" d="M10.67 14.133l0.755-2.318 0.208 0.19-0.748 2.224-0.216-0.096z"></path>
<path fill="#000" style="fill: var(--color2, #000)" opacity="0.03" d="M11.425 11.815l0.318 0.298 2.862-0.072-0.045-0.294-3.135 0.069z"></path>
<path fill="#000" style="fill: var(--color2, #000)" opacity="0.03" d="M10.67 14.133l0.755-2.318 0.318 0.298-0.748 2.224-0.326-0.203z"></path>
<path fill="#000" style="fill: var(--color2, #000)" opacity="0.03" d="M10.675 14.166l0.069 0.441 2.75 0.955-0.080-0.512-2.74-0.884z"></path>
<path fill="#000" style="fill: var(--color2, #000)" opacity="0.03" d="M8.642 15.615l2.033-1.45 0.089 0.441-1.997 1.485-0.125-0.476z"></path>
<path fill="#eff0f4" style="fill: var(--color16, #eff0f4)" d="M10.67 14.133l0.060 0.38 2.75 0.955-0.071-0.451-2.739-0.884z"></path>
<path fill="#eff0f4" style="fill: var(--color16, #eff0f4)" d="M8.636 15.583l2.033-1.449 0.079 0.38-1.997 1.485-0.115-0.416z"></path>
<path fill="#000" style="fill: var(--color2, #000)" opacity="0.03" d="M10.67 14.133l0.060 0.38 2.75 0.955-0.071-0.451-2.739-0.884z"></path>
<path fill="#000" style="fill: var(--color2, #000)" opacity="0.03" d="M8.636 15.583l2.033-1.449 0.079 0.38-1.997 1.485-0.115-0.416z"></path>
<path fill="#cccad6" style="fill: var(--color17, #cccad6)" d="M8.636 15.583l0.092 0.548 2.458 1.468-0.061-0.564-2.489-1.452z"></path>
<path fill="#ffe09c" style="fill: var(--color5, #ffe09c)" d="M9.756 15.496s-0.043 0.081 0.022 0.119c0.031 0.018 0.253 0.061 0.476 0.103 0.109 0.020 0.219 0.040 0.307 0.055 0.108 0.019 0.182 0.031 0.182 0.031h0.057l0.663 0.013 0.136-0.028-0.078-0.534-0.407-0.447-0.1 0.084-1.172 0.571z"></path>
<path fill="#e7c4c3" style="fill: var(--color6, #e7c4c3)" d="M11.83 15.754s-0.077-0.584-0.297-0.789c0 0-0.181-0.184-0.293-0.235 0 0-0.095-0.067-0.188 0.136 0 0 0.359 0.219 0.436 0.561l0.077 0.342z"></path>
<path fill="#ff7f8e" style="fill: var(--color7, #ff7f8e)" d="M11.329 15.318c0.084 0.054 0.116 0.156 0.070 0.227s-0.151 0.086-0.236 0.032c-0.084-0.054-0.116-0.156-0.070-0.227s0.151-0.086 0.236-0.032z"></path>
<path fill="#ff7f8e" style="fill: var(--color7, #ff7f8e)" d="M10.768 15.191c0.084 0.054 0.116 0.156 0.070 0.227s-0.151 0.086-0.236 0.032c-0.084-0.054-0.116-0.156-0.070-0.227s0.151-0.086 0.236-0.032z"></path>
<path fill="#ff7f8e" style="fill: var(--color7, #ff7f8e)" d="M10.791 15.001c0.005 0.063 0.040 0.117 0.091 0.147h0.001c0.084 0.054 0.19 0.040 0.235-0.031s0.014-0.173-0.070-0.227c-0.005-0.003-0.011-0.007-0.017-0.010l-0.001-0.001-0.014 0.012z"></path>
<path fill="#ff7f8e" style="fill: var(--color7, #ff7f8e)" d="M10.816 15.692c-0.013 0.021-0.021 0.047-0.021 0.075 0 0.014 0.002 0.028 0.006 0.040v-0.001l0.342 0.006c-0.003-0.065-0.039-0.122-0.091-0.153h-0.001c-0.083-0.053-0.188-0.038-0.234 0.033z"></path>
<path fill="#ff7f8e" style="fill: var(--color7, #ff7f8e)" d="M10.259 15.574c-0.013 0.022-0.021 0.048-0.021 0.076 0 0.025 0.006 0.048 0.017 0.069v-0.001c0.109 0.020 0.219 0.040 0.307 0.055l0.003-0.004c0.046-0.071 0.014-0.173-0.070-0.227s-0.19-0.040-0.236 0.032z"></path>
<path fill="#ff7f8e" style="fill: var(--color7, #ff7f8e)" d="M9.876 15.447c0.013 0.014 0.028 0.027 0.044 0.038l0.001 0.001c0.084 0.054 0.19 0.040 0.235-0.031 0.013-0.022 0.021-0.048 0.021-0.076 0-0.025-0.006-0.049-0.017-0.069v0.001z"></path>
<path fill="#94cc79" style="fill: var(--color8, #94cc79)" d="M11.346 15.661l-0.031 0.049c-0.031-0.032-0.069-0.058-0.111-0.075l-0.002-0.001-0.009-0.002c-0.057-0.010 0.031-0.049 0.031-0.049s0.11 0.046 0.122 0.078z"></path>
<path fill="#94cc79" style="fill: var(--color8, #94cc79)" d="M11.079 15.308l-0.031 0.049c-0.031-0.033-0.069-0.059-0.111-0.075l-0.002-0.001-0.009-0.002c-0.057-0.010 0.031-0.049 0.031-0.049s0.11 0.046 0.122 0.078z"></path>
<path fill="#94cc79" style="fill: var(--color8, #94cc79)" d="M10.912 15.439l-0.031 0.049c-0.031-0.032-0.069-0.058-0.111-0.075l-0.002-0.001-0.009-0.002c-0.057-0.010 0.031-0.049 0.031-0.049s0.11 0.045 0.122 0.078z"></path>
<path fill="#94cc79" style="fill: var(--color8, #94cc79)" d="M10.557 15.562l-0.031 0.049c-0.031-0.033-0.069-0.059-0.111-0.075l-0.002-0.001-0.009-0.002c-0.057-0.010 0.031-0.049 0.031-0.049s0.11 0.045 0.122 0.078z"></path>
<path fill="#94cc79" style="fill: var(--color8, #94cc79)" d="M10.041 15.544l-0.031 0.049c-0.031-0.033-0.069-0.058-0.112-0.075l-0.002-0.001-0.009-0.002c-0.057-0.010 0.031-0.049 0.031-0.049s0.11 0.046 0.123 0.078z"></path>
<path fill="#94cc79" style="fill: var(--color8, #94cc79)" d="M10.464 15.359l-0.031 0.049c-0.031-0.033-0.069-0.059-0.111-0.075l-0.002-0.001-0.009-0.002c-0.057-0.010 0.031-0.049 0.031-0.049s0.11 0.046 0.122 0.078z"></path>
<path fill="#e7c4c3" style="fill: var(--color6, #e7c4c3)" d="M11.732 15.905s0.198-0.022 0.097-0.152c-0.046-0.012-0.098-0.018-0.152-0.018-0.062 0-0.121 0.009-0.178 0.025l0.005-0.001s-0.841 0.037-0.95-0.023c0 0-0.762-0.123-0.793-0.162 0 0-0.061 0.014 0.125 0.097s0.785 0.17 0.785 0.17l0.634 0.050 0.228-0.028z"></path>
<path fill="#fff" style="fill: var(--color4, #fff)" opacity="0.2" d="M11.732 15.905s0.198-0.022 0.097-0.152c-0.046-0.012-0.098-0.018-0.152-0.018-0.062 0-0.121 0.009-0.178 0.025l0.005-0.001s-0.841 0.037-0.95-0.023c0 0-0.762-0.123-0.793-0.162 0 0-0.061 0.014 0.125 0.097s0.785 0.17 0.785 0.17l0.634 0.050 0.228-0.028z"></path>
<path fill="#ff7f8e" style="fill: var(--color7, #ff7f8e)" d="M11.133 15.604c-0.006 0.017-0.009 0.037-0.009 0.058 0 0.043 0.014 0.082 0.038 0.114v0c0.058 0.081 0.161 0.108 0.23 0.059s0.078-0.154 0.020-0.237c-0.004-0.006-0.008-0.011-0.013-0.016l-0.018 0.006z"></path>
<path fill="#cccad6" style="fill: var(--color17, #cccad6)" d="M11.125 17.035l2.284-2.018 0.070 0.445-2.293 2.136-0.061-0.564z"></path>
<path fill="#cccad6" style="fill: var(--color17, #cccad6)" d="M13.705 15.132l-0.296-0.115 1.151-3.271 0.219 0.155-1.074 3.231z"></path>
<path fill="#fff" style="fill: var(--color4, #fff)" opacity="0.1" d="M11.852 19.9c0.003-0.084 0.015-0.165 0.036-0.241l-0.002 0.007-0.015 0.005c-0.012 0.060-0.019 0.13-0.019 0.201 0 0.010 0 0.020 0 0.030v-0.001z"></path>
<path fill="#fff" style="fill: var(--color4, #fff)" opacity="0.1" d="M12.005 21.003c-0.239 0.014-0.981-0.327-1.129-0.505-0.019-0.023-0.031-0.052-0.034-0.084v-0.001c-0.002 0.010-0.003 0.021-0.003 0.032 0 0.042 0.014 0.081 0.038 0.112v0c0.148 0.178 0.89 0.519 1.129 0.505 0.253-0.015 1.1 0.031 1.129-0.357 0.001-0.003 0.001-0.006 0.001-0.009 0-0.008-0.002-0.015-0.005-0.022v0c-0.068 0.356-0.879 0.314-1.125 0.328z"></path>
<path fill="#ffe09c" style="fill: var(--color5, #ffe09c)" d="M12.873 13.791s0.053-0.061 0.005-0.106c-0.023-0.022-0.204-0.104-0.386-0.184-0.089-0.039-0.18-0.078-0.251-0.109l-0.149-0.064-0.612-0.156-0.123-0.003-0.041 0.473 0.258 0.464 0.102-0.052 0.213-0.048 0.602-0.134 0.301-0.069z"></path>
<path fill="#e7c4c3" style="fill: var(--color6, #e7c4c3)" d="M11.154 13.154s-0.052 0.514 0.095 0.733c0 0 0.118 0.193 0.203 0.259 0 0 0.068 0.076 0.188-0.078 0 0-0.263-0.259-0.26-0.567l0.002-0.307z"></path>
<path fill="#ff7f8e" style="fill: var(--color7, #ff7f8e)" d="M11.688 13.441c0.061 0.063 0.068 0.156 0.014 0.208s-0.146 0.043-0.207-0.020c-0.061-0.063-0.068-0.156-0.014-0.208s0.146-0.043 0.207 0.020z"></path>
<path fill="#ff7f8e" style="fill: var(--color7, #ff7f8e)" d="M12.142 13.662c0.061 0.063 0.068 0.156 0.014 0.208s-0.146 0.043-0.207-0.020c-0.061-0.063-0.068-0.156-0.014-0.208s0.146-0.043 0.207 0.020z"></path>
<path fill="#ff7f8e" style="fill: var(--color7, #ff7f8e)" d="M11.89 14.006c0.001-0.008 0.002-0.017 0.002-0.026 0-0.047-0.019-0.089-0.050-0.119v0c-0.061-0.061-0.154-0.072-0.207-0.020s-0.047 0.145 0.014 0.208c0.004 0.004 0.008 0.008 0.013 0.012v0l0.015-0.008z"></path>
<path fill="#ff7f8e" style="fill: var(--color7, #ff7f8e)" d="M12.009 13.41c0.022-0.022 0.036-0.053 0.036-0.087 0-0.003 0-0.005 0-0.008v0l-0.29-0.074c-0.002 0.009-0.003 0.020-0.003 0.030 0 0.046 0.019 0.088 0.050 0.118v0c0.060 0.063 0.153 0.072 0.207 0.020z"></path>
<path fill="#ff7f8e" style="fill: var(--color7, #ff7f8e)" d="M12.459 13.623c0.023-0.023 0.037-0.055 0.037-0.091 0-0.011-0.001-0.023-0.004-0.033v0.001c-0.089-0.039-0.18-0.078-0.251-0.109l-0.003 0.003c-0.053 0.052-0.047 0.145 0.014 0.208s0.154 0.073 0.207 0.021z"></path>
<path fill="#ff7f8e" style="fill: var(--color7, #ff7f8e)" d="M12.761 13.81c-0.009-0.016-0.019-0.030-0.031-0.041v0c-0.061-0.063-0.154-0.072-0.207-0.020-0.023 0.023-0.037 0.055-0.037 0.090 0 0.012 0.002 0.023 0.005 0.034v-0.001z"></path>
<path fill="#94cc79" style="fill: var(--color8, #94cc79)" d="M11.548 13.33l0.037-0.035c0.021 0.035 0.048 0.064 0.081 0.087l0.001 0.001 0.007 0.004c0.047 0.020-0.037 0.035-0.037 0.035s-0.084-0.061-0.089-0.091z"></path>
<path fill="#94cc79" style="fill: var(--color8, #94cc79)" d="M11.706 13.687l0.036-0.036c0.021 0.035 0.048 0.065 0.081 0.087l0.001 0.001 0.007 0.003c0.047 0.021-0.037 0.036-0.037 0.036s-0.085-0.063-0.089-0.091z"></path>
<path fill="#94cc79" style="fill: var(--color8, #94cc79)" d="M11.874 13.608l0.037-0.036c0.021 0.035 0.048 0.065 0.081 0.087l0.001 0.001 0.007 0.003c0.047 0.021-0.037 0.036-0.037 0.036s-0.085-0.061-0.089-0.091z"></path>
<path fill="#94cc79" style="fill: var(--color8, #94cc79)" d="M12.203 13.575l0.037-0.036c0.021 0.035 0.048 0.065 0.081 0.087l0.001 0.001 0.007 0.004c0.047 0.020-0.037 0.035-0.037 0.035s-0.085-0.061-0.089-0.091z"></path>
<path fill="#94cc79" style="fill: var(--color8, #94cc79)" d="M12.64 13.693l0.037-0.036c0.021 0.035 0.048 0.065 0.081 0.087l0.001 0.001 0.007 0.003c0.047 0.021-0.037 0.036-0.037 0.036s-0.085-0.061-0.089-0.091z"></path>
<path fill="#94cc79" style="fill: var(--color8, #94cc79)" d="M12.241 13.766l0.037-0.035c0.021 0.035 0.048 0.064 0.081 0.087l0.001 0.001c0.002 0.001 0.004 0.003 0.007 0.004v0c0.047 0.020-0.037 0.036-0.037 0.036s-0.085-0.061-0.089-0.092z"></path>
<path fill="#e7c4c3" style="fill: var(--color6, #e7c4c3)" d="M11.267 13.044s-0.173-0.021-0.113 0.11c0.075 0.039 0.163 0.062 0.257 0.062 0.008 0 0.015 0 0.023 0h-0.001s0.726 0.137 0.807 0.21c0 0 0.626 0.258 0.646 0.298 0 0 0.055 0-0.088-0.108s-0.635-0.303-0.635-0.303l-0.531-0.171-0.2-0.022z"></path>
<path fill="#fff" style="fill: var(--color4, #fff)" opacity="0.2" d="M11.267 13.044s-0.173-0.021-0.113 0.11c0.075 0.039 0.163 0.062 0.257 0.062 0.008 0 0.015 0 0.023 0h-0.001s0.726 0.137 0.807 0.21c0 0 0.626 0.258 0.646 0.298 0 0 0.055 0-0.088-0.108s-0.635-0.303-0.635-0.303l-0.531-0.171-0.2-0.022z"></path>
<path fill="#a0616a" style="fill: var(--color14, #a0616a)" d="M10.382 13.76c0.091-0.049 0.169-0.108 0.236-0.179v0c0.031-0.036 0.057-0.077 0.088-0.113 0.078-0.083 0.179-0.143 0.294-0.169l0.004-0.001c0.094-0.022 0.202-0.034 0.312-0.034 0.011 0 0.023 0 0.034 0h-0.002c0.012-0.001 0.026-0.001 0.040-0.001 0.068 0 0.133 0.011 0.194 0.030l-0.004-0.001c0.075 0.025 0.132 0.086 0.152 0.162v0.002c0.017 0.092-0.043 0.182-0.116 0.241-0.064 0.053-0.142 0.092-0.227 0.111l-0.004 0.001c-0.059 0.011-0.131 0.019-0.203 0.024h-0.005c-0.411 0.043-0.778 0.267-1.137 0.471-0.317 0.179-0.496 0.171-0.825 0.326-0.013-0.098-0.162-0.022-0.16-0.121 0.002-0.074 0.006-0.187 0.076-0.231 0.081-0.051 0.215-0.061 0.307-0.092 0.246-0.081 0.451-0.166 0.648-0.263l-0.029 0.013q0.166-0.081 0.327-0.175z"></path>
<path fill="#000" style="fill: var(--color2, #000)" opacity="0.1" d="M7.666 13.485l1.576 1.426s0.297-0.594 0.386-0.594-1.070-1.752-1.070-1.752-0.297-0.357-0.476-0.178-0.714 0.058-0.417 1.098z"></path>
<path fill="#c0392b" style="fill: var(--color12, #c0392b)" d="M7.636 13.426l1.575 1.426s0.297-0.595 0.386-0.595-1.070-1.752-1.070-1.752-0.297-0.357-0.476-0.179-0.713 0.059-0.416 1.099z"></path>
<path fill="#3f3d56" style="fill: var(--color3, #3f3d56)" d="M10.23 10.911c0.033-0.037 0.061-0.079 0.082-0.126l0.001-0.003c0.136-0.307-0.080-0.694-0.448-0.799-0.184-0.054-0.391-0.043-0.575-0.1-0.148-0.046-0.273-0.133-0.409-0.2-0.222-0.112-0.484-0.178-0.762-0.178-0.021 0-0.042 0-0.063 0.001h0.003c-0.278 0.010-0.581 0.108-0.695 0.322-0.167 0.313 0.14 0.707-0.046 1.012-0.136 0.224-0.468 0.29-0.742 0.387-0.296 0.104-0.549 0.264-0.758 0.47v0c-0.215 0.215-0.369 0.51-0.261 0.777 0.063 0.156 0.205 0.279 0.318 0.414 0.196 0.229 0.316 0.529 0.316 0.857 0 0.28-0.087 0.54-0.236 0.754l0.003-0.004c-0.053 0.076-0.115 0.15-0.136 0.236-0.052 0.205 0.159 0.412 0.402 0.452s0.497-0.051 0.686-0.185c0.174-0.121 0.313-0.281 0.406-0.469l0.003-0.007c0.225-0.478 0.067-1.014 0.045-1.529-0.003-0.060 0-0.125 0.042-0.172 0.065-0.070 0.188-0.069 0.293-0.078 0.272-0.024 0.523-0.176 0.638-0.387 0.22-0.405-0.036-0.97 0.349-1.274 0.485-0.383 1.183 0.223 1.543-0.171z"></path>
<path fill="#000" style="fill: var(--color2, #000)" opacity="0.1" d="M9.865 9.982h-0.003c0.144 0.167 0.198 0.392 0.113 0.586-0.022 0.050-0.049 0.092-0.083 0.13v0c-0.36 0.393-1.058-0.212-1.543 0.171-0.385 0.304-0.129 0.87-0.349 1.274-0.114 0.21-0.366 0.363-0.638 0.387-0.105 0.009-0.228 0.007-0.293 0.078-0.043 0.047-0.045 0.112-0.042 0.172 0.022 0.514 0.181 1.051-0.045 1.529-0.096 0.194-0.235 0.355-0.405 0.473l-0.004 0.003c-0.19 0.134-0.442 0.226-0.686 0.186l-0.017-0.004c0.083 0.115 0.208 0.195 0.352 0.218h0.003c0.244 0.040 0.495-0.053 0.686-0.187 0.174-0.121 0.313-0.281 0.406-0.469l0.003-0.007c0.225-0.478 0.067-1.014 0.045-1.529-0.003-0.060 0-0.125 0.042-0.172 0.065-0.070 0.188-0.069 0.293-0.078 0.272-0.024 0.523-0.176 0.638-0.387 0.22-0.405-0.036-0.97 0.349-1.274 0.485-0.383 1.183 0.223 1.543-0.171 0.033-0.037 0.061-0.079 0.082-0.126l0.001-0.003c0.136-0.308-0.080-0.692-0.448-0.8z"></path>
</symbol>
<symbol id="icon-facebook" viewBox="0 0 32 32">
<path d="M16 0c-8.836 0-16 7.164-16 16s7.164 16 16 16 16-7.164 16-16-7.164-16-16-16zM20 10.667h-1.8c-0.717 0-0.867 0.295-0.867 1.037v1.629h2.667l-0.279 2.667h-2.388v9.333h-4v-9.333h-2.667v-2.667h2.667v-3.077c0-2.359 1.241-3.589 4.039-3.589h2.628v4z"></path>
</symbol>
<symbol id="icon-google" viewBox="0 0 32 32">
<path d="M29.573 13.842l-0.141-0.599h-13.027v5.514h7.784c-0.808 3.837-4.558 5.858-7.621 5.858-2.229 0-4.578-0.938-6.133-2.444-1.6-1.576-2.596-3.76-2.612-6.177v-0.003c0-2.322 1.044-4.646 2.562-6.174s3.813-2.383 6.093-2.383c2.612 0 4.484 1.387 5.184 2.019l3.918-3.897c-1.149-1.010-4.307-3.555-9.228-3.555-3.797 0-7.438 1.454-10.099 4.107-2.626 2.612-3.986 6.389-3.986 9.893s1.286 7.093 3.831 9.725c2.719 2.808 6.571 4.275 10.536 4.275 3.608 0 7.028-1.414 9.466-3.979 2.396-2.525 3.636-6.019 3.636-9.681 0-1.542-0.155-2.457-0.162-2.498z"></path>
</symbol>
<symbol id="icon-leaf" viewBox="0 0 32 32">
<path d="M21.049 10.041c-6.809 3.713-16.96 12.236-21.049 20.625h3.919c1.092-2.695 3.363-6.048 5.135-7.869 11.181 4.996 22.947-3.7 22.947-15.124 0-2.047-0.403-4.181-1.227-6.34-3.129 4.159-7.529 1.403-14.468 2.167-10.209 1.125-14.883 9.063-11.685 15.387 4.675-4.553 12.697-8.507 16.429-8.845z"></path>
</symbol>
<symbol id="icon-location" viewBox="0 0 32 32">
<path fill="#3f3d56" style="fill: var(--color3, #3f3d56)" d="M22.527 7.079h-0.164v-4.484c0 0 0 0 0 0 0-1.433-1.162-2.595-2.595-2.595 0 0 0 0 0 0h-9.499c0 0 0 0 0 0-1.433 0-2.595 1.162-2.595 2.595 0 0 0 0 0 0v0 24.598c0 0 0 0 0 0 0 1.433 1.162 2.595 2.595 2.595 0 0 0 0 0 0h9.499c0 0 0 0 0 0 1.433 0 2.595-1.162 2.595-2.595 0 0 0 0 0 0v0-16.922h0.164z"></path>
<path fill="#3f3d56" style="fill: var(--color3, #3f3d56)" d="M0.826 28.565h30.034v0.084h-30.034v-0.084z"></path>
<path fill="#000" style="fill: var(--color2, #000)" opacity="0.2" d="M21.811 2.613v24.561c0 0 0 0.001 0 0.002 0 1.069-0.867 1.936-1.936 1.936-0.001 0-0.001 0-0.002 0h-9.545c0 0-0.001 0-0.001 0-1.070 0-1.937-0.867-1.937-1.937 0 0 0-0.001 0-0.001v0-24.561c0 0 0-0.001 0-0.001 0-1.070 0.867-1.937 1.937-1.937 0 0 0.001 0 0.001 0h1.158c-0.043 0.103-0.068 0.222-0.068 0.348 0 0.508 0.412 0.921 0.921 0.921 0 0 0 0 0 0h5.442c0 0 0 0 0 0 0.508 0 0.921-0.412 0.921-0.921 0-0.125-0.025-0.245-0.070-0.354l0.002 0.006h1.24c0.001 0 0.001 0 0.002 0 1.069 0 1.936 0.867 1.936 1.936 0 0.001 0 0.001 0 0.002v0z"></path>
<path fill="#3f3d56" style="fill: var(--color3, #3f3d56)" d="M3.809 28.644l-0.045-0.017c-0.010-0.004-0.992-0.38-1.452-1.233s-0.235-1.88-0.232-1.89l0.011-0.047 0.045 0.017c0.010 0.004 0.992 0.38 1.452 1.233s0.235 1.88 0.232 1.89zM2.386 27.354c0.389 0.721 1.165 1.091 1.361 1.175 0.037-0.211 0.155-1.063-0.234-1.783s-1.165-1.091-1.361-1.175c-0.037 0.211-0.155 1.063 0.234 1.783z"></path>
<path fill="#c0392b" style="fill: var(--color12, #c0392b)" d="M2.664 27.095c0.827 0.497 1.145 1.485 1.145 1.485s-1.022 0.181-1.848-0.316-1.145-1.485-1.145-1.485 1.022-0.181 1.848 0.316z"></path>
<path fill="#3f3d56" style="fill: var(--color3, #3f3d56)" d="M10.798 0.675v28.437h-0.47c-0.001 0-0.002 0-0.003 0-0.129 0-0.254-0.013-0.376-0.037l0.012 0.002v-28.368c0.109-0.022 0.235-0.035 0.363-0.035 0.001 0 0.002 0 0.003 0v0z"></path>
<path fill="#3f3d56" style="fill: var(--color3, #3f3d56)" d="M14.479 1.944h0.837v27.169h-0.837v-27.169z"></path>
<path fill="#3f3d56" style="fill: var(--color3, #3f3d56)" d="M20.545 0.795v28.198c-0.199 0.076-0.429 0.12-0.669 0.12-0.001 0-0.002 0-0.003 0h-0.165v-28.437h0.165c0.001 0 0.002 0 0.003 0 0.24 0 0.47 0.044 0.683 0.124l-0.013-0.004z"></path>
<path fill="#3f3d56" style="fill: var(--color3, #3f3d56)" d="M8.39 5.41h13.421v0.837h-13.421v-0.837z"></path>
<path fill="#3f3d56" style="fill: var(--color3, #3f3d56)" d="M8.39 14.906h13.421v0.837h-13.421v-0.837z"></path>
<path fill="#3f3d56" style="fill: var(--color3, #3f3d56)" d="M14.647 19.591h6.735v0.837h-6.735v-0.837z"></path>
<path fill="#3f3d56" style="fill: var(--color3, #3f3d56)" d="M14.479 8.966h7.332v0.837h-7.332v-0.837z"></path>
<path fill="#3f3d56" style="fill: var(--color3, #3f3d56)" d="M15.084 6.191l-6.694 3.865v-0.966l6.275-3.623 0.418 0.724z"></path>
<path fill="#3f3d56" style="fill: var(--color3, #3f3d56)" d="M8.39 24.067h13.421v0.837h-13.421v-0.837z"></path>
<path fill="#c0392b" style="fill: var(--color12, #c0392b)" d="M24.728 9.008c0 2.657-4.81 8.575-4.81 8.575s-4.81-5.918-4.81-8.575c0-2.657 2.154-4.81 4.81-4.81s4.81 2.154 4.81 4.81v0z"></path>
<path fill="#000" style="fill: var(--color2, #000)" opacity="0.2" d="M22.762 8.799c0 1.571-1.273 2.844-2.844 2.844s-2.844-1.274-2.844-2.844c0-1.571 1.273-2.844 2.844-2.844s2.844 1.274 2.844 2.844z"></path>
<path fill="#c0392b" style="fill: var(--color12, #c0392b)" d="M20.883 8.862c0 0.585-0.474 1.060-1.060 1.060s-1.060-0.474-1.060-1.060c0-0.585 0.474-1.060 1.060-1.060s1.060 0.474 1.060 1.060z"></path>
<path fill="#c0392b" style="fill: var(--color12, #c0392b)" d="M21.478 11.936c0.018-0.090 0.029-0.194 0.029-0.301 0-0.878-0.712-1.59-1.59-1.59s-1.59 0.712-1.59 1.59c0 0.106 0.010 0.21 0.030 0.311l-0.002-0.010z"></path>
<path fill="#2f2e41" style="fill: var(--color10, #2f2e41)" d="M24.93 5.136s-0.756-0.27-1.242 0.81-1.242 2.267-1.242 2.267l0.432 0.108s0.108-0.756 0.378-0.864l-0.108 0.972s3.239 1.134 4.697-0.108l-0.054-0.378s0.216 0.054 0.216 0.378l0.162-0.162s-0.162-0.324-0.648-0.756c-0.319-0.283-0.428-0.823-0.466-1.16-0.030-0.294-0.147-0.557-0.325-0.766l0.002 0.002c-0.323-0.374-0.911-0.772-1.802-0.343z"></path>
<path fill="#fbbebe" style="fill: var(--color9, #fbbebe)" d="M29.517 11.246s1.422 1.213 1.631 1.924-0.795 0.795-0.795 0.795l-2.175 0.209s-0.042 1.004-0.418 1.129-0.076-1.66-0.076-1.66l2.126-0.599-0.962-1.004z"></path>
<path fill="#fbbebe" style="fill: var(--color9, #fbbebe)" d="M22.866 12.501l-0.167 2.217-0.92 3.765s-0.837 1.715-0.125 1.757 0.669-1.631 0.669-1.631l1.339-3.556 0.125-2.426z"></path>
<path fill="#fbbebe" style="fill: var(--color9, #fbbebe)" d="M23.619 28.563v1.631l1.004-0.251-0.293-1.506-0.711 0.125z"></path>
<path fill="#fbbebe" style="fill: var(--color9, #fbbebe)" d="M28.974 28.563v1.631l1.004-0.251-0.293-1.506-0.711 0.125z"></path>
<path fill="#fbbebe" style="fill: var(--color9, #fbbebe)" d="M26.589 7.23c0 0.762-0.618 1.38-1.38 1.38s-1.38-0.618-1.38-1.38c0-0.762 0.618-1.38 1.38-1.38s1.38 0.618 1.38 1.38z"></path>
<path fill="#fbbebe" style="fill: var(--color9, #fbbebe)" d="M24.581 7.899s0.502 1.799-0.293 2.259 2.008 0.795 2.761-0.586c0 0-1.339-0.46-0.962-1.673z"></path>
<path fill="#575a89" style="fill: var(--color18, #575a89)" d="M23.619 10.367l-0.251-0.084s-0.502 0.209-0.502 0.586-0.084 1.882-0.084 1.882l1.129 0.126z"></path>
<path fill="#2f2e41" style="fill: var(--color10, #2f2e41)" d="M23.787 14.841s-1.38 1.759-1.38 3.892 0.335 9.872 0.335 9.872 1.255 0.586 2.008-0.125l0.669-8.784 2.635 9.077s1.255 0.251 1.841-0.167l-1.129-5.856s-0.042-6.944-1.297-7.446-3.681-0.462-3.681-0.462z"></path>
<path fill="#2f2e41" style="fill: var(--color10, #2f2e41)" d="M24.707 29.693s-1.088-0.586-1.171 0.209-0.125 1.297-0.125 1.297-0.125 0.962 1.046 0.753 0.753-0.795 0.753-0.795-0.418-0.669-0.418-0.837-0.084-0.627-0.084-0.627z"></path>
<path fill="#2f2e41" style="fill: var(--color10, #2f2e41)" d="M28.866 29.674s0.99-0.739 1.189 0.035 0.315 1.264 0.315 1.264 0.265 0.933-0.924 0.898-0.861-0.676-0.861-0.676 0.315-0.723 0.291-0.889-0.009-0.633-0.009-0.633z"></path>
<path fill="#575a89" style="fill: var(--color18, #575a89)" d="M27.635 9.782s0.544-0.293 1.088 0.335l1.088 1.255-0.837 0.92-1.59-0.962z"></path>
<path fill="#2f2e41" style="fill: var(--color10, #2f2e41)" d="M23.717 7.239c0.489-0.354 0.884-0.761 1.146-1.246 0 0 0.897 0.996 1.445 1.046s0.050-1.196 0.050-1.196l-0.996-0.249-0.947 0.1-0.747 0.498z"></path>
<path fill="#575a89" style="fill: var(--color18, #575a89)" d="M26.84 9.489s-0.585 0.926-2.342 0.484l-1.13 0.311s0.125 2.51 0.46 2.97 0.251 0.711 0.167 0.753-0.293-0.042-0.167 0.167 0.293 0.084 0.125 0.209-0.251 0.586-0.251 0.586l3.932 0.502s-0.125-1.631 0.209-2.468 0.418-1.171 0.418-1.171l-0.251-2.091z"></path>
<path fill="#c0392b" style="fill: var(--color12, #c0392b)" d="M21.632 19.758c0 0.716-0.581 1.297-1.297 1.297s-1.297-0.581-1.297-1.297c0-0.716 0.581-1.297 1.297-1.297s1.297 0.581 1.297 1.297z"></path>
</symbol>
<symbol id="icon-loop" viewBox="0 0 32 32">
<path d="M7.237 8c8.024 0 11.219 13.333 17.524 13.333 2.819 0 4.64-2.104 4.64-5.333s-1.821-5.333-4.64-5.333c-2.22 0-3.815 1.425-5.356 3.193l-1.659-2.083c1.999-2.043 4.065-3.777 7.013-3.777 4.264 0 7.24 3.273 7.24 8s-2.976 8-7.24 8c-8.004 0-11.208-13.333-17.523-13.333-2.817 0-4.639 2.104-4.639 5.333s1.82 5.333 4.639 5.333c2.219 0 3.813-1.424 5.353-3.189l1.659 2.081c-1.999 2.041-4.067 3.775-7.012 3.775-4.263 0-7.237-3.273-7.237-8s2.975-8 7.237-8z"></path>
</symbol>
<symbol id="icon-opencart" viewBox="0 0 49 32">
<path d="M27.214 27.875c0 1.625-1.304 2.929-2.929 2.929s-2.946-1.304-2.946-2.929 1.321-2.946 2.946-2.946 2.929 1.321 2.929 2.946zM13.839 27.875c0 1.625-1.321 2.929-2.946 2.929s-2.929-1.304-2.929-2.929 1.304-2.946 2.929-2.946 2.946 1.321 2.946 2.946zM0 1.196c5.268 5.554 10.214 6.375 29.643 6.375s10.893 4.321-1.107 15.036c3.804-6.607 16.875-12.464-4.554-12.143-20.554 0.304-21.768-5.946-23.982-9.268z"></path>
</symbol>
<symbol id="icon-order" viewBox="0 0 32 32">
<path fill="#f2f2f2" style="fill: var(--color1, #f2f2f2)" d="M31.063 11.259h-17.516c-0.513 0-0.929 0.417-0.93 0.93v2.839c0 0.513 0.417 0.929 0.93 0.93h17.516c0.513 0 0.929-0.417 0.93-0.93v-2.839c0-0.513-0.417-0.929-0.93-0.93v0z"></path>
<path fill="#3f3d56" style="fill: var(--color3, #3f3d56)" d="M7.024 27.461h-6.969c-0.031 0-0.056-0.025-0.056-0.056s0.025-0.056 0.056-0.056v0h6.969c0.031 0 0.056 0.025 0.056 0.056s-0.025 0.056-0.056 0.056v0z"></path>
<path fill="#ffb8b8" style="fill: var(--color19, #ffb8b8)" d="M6.001 10.006c-0.147 0.094-0.244 0.257-0.244 0.442 0 0.136 0.052 0.26 0.137 0.353v0l-0.507 1.082 0.582 0.468 0.694-1.538c0.091-0.094 0.146-0.223 0.146-0.364 0-0.29-0.235-0.526-0.526-0.526-0.105 0-0.203 0.031-0.285 0.084l0.002-0.001z"></path>
<path fill="#ccc" style="fill: var(--color20, #ccc)" d="M3.090 10.445v0c0.107-0.065 0.236-0.104 0.375-0.104 0.251 0 0.473 0.127 0.604 0.321l0.002 0.003 1.037 1.552 0.36-0.793c0.036-0.078 0.113-0.131 0.203-0.131 0.024 0 0.047 0.004 0.068 0.011h-0.002l0.543 0.17c0.091 0.029 0.157 0.113 0.157 0.213 0 0.026-0.004 0.050-0.012 0.073v-0.002l-0.372 1.098c-0.131 0.378-0.484 0.644-0.899 0.644-0.201 0-0.387-0.062-0.54-0.169l0.003 0.002c-0.058-0.040-0.109-0.084-0.155-0.133v-0.001l-1.528-1.632c-0.122-0.13-0.196-0.305-0.196-0.497 0-0.264 0.14-0.494 0.35-0.622l0.003-0.002z"></path>
<path fill="#3f3d56" style="fill: var(--color3, #3f3d56)" d="M6.443 8.841c0.057 0.001 0.102 0.048 0.102 0.105 0 0.001 0 0.002 0 0.003v0l-0.009 0.36 0.018 0.002-0.006 0.245-0.018-0.002-0.032 1.291c-0.002 0.092-0.072 0.167-0.162 0.176h-0.001l-0.821 0.086c-0.004 0-0.009 0.001-0.014 0.001-0.076 0-0.138-0.062-0.138-0.138 0-0.003 0-0.007 0-0.010v0l0.124-1.838c0.006-0.080 0.066-0.144 0.143-0.157h0.001l0.792-0.123c0.005-0.001 0.011-0.001 0.017-0.001 0.001 0 0.002 0 0.003 0v0z"></path>
<path fill="#fff" style="fill: var(--color4, #fff)" d="M5.808 9.032l0.417-0.065c0.015-0.002 0.027-0.015 0.029-0.030v0c0.002-0.018 0.015-0.032 0.033-0.034v0l0.088-0.014c0.004-0.001 0.008-0.001 0.013-0.001 0.046 0 0.083 0.037 0.083 0.083 0 0.001 0 0.001 0 0.002v0l-0.045 1.871c-0.001 0.048-0.038 0.088-0.086 0.092v0l-0.82 0.073c-0.002 0-0.004 0-0.006 0-0.040 0-0.073-0.033-0.073-0.073 0-0.002 0-0.003 0-0.005v0l0.111-1.821c0.003-0.056 0.045-0.101 0.099-0.109h0.001l0.093-0.014c0.006 0.026 0.030 0.045 0.057 0.045 0.003 0 0.006 0 0.009-0.001v0z"></path>
<path fill="#ffb8b8" style="fill: var(--color19, #ffb8b8)" d="M3.876 26.784h0.637l0.303-2.458h-0.941v2.458z"></path>
<path fill="#2f2e41" style="fill: var(--color10, #2f2e41)" d="M5.742 27.376h-2.003v-0.774h1.229c0.427 0 0.774 0.346 0.774 0.774v0 0cv0z"></path>
<path fill="#ffb8b8" style="fill: var(--color19, #ffb8b8)" d="M1.917 26.784h0.637l0.303-2.458h-0.941v2.458z"></path>
<path fill="#2f2e41" style="fill: var(--color10, #2f2e41)" d="M3.784 27.376h-2.003v-0.774h1.229c0.427 0 0.774 0.346 0.774 0.774v0 0cv0z"></path>
<path fill="#ffb8b8" style="fill: var(--color19, #ffb8b8)" d="M5.153 8.24c0 0.756-0.613 1.369-1.369 1.369s-1.369-0.613-1.369-1.369c0-0.756 0.613-1.369 1.369-1.369s1.369 0.613 1.369 1.369z"></path>
<path fill="#2f2e41" style="fill: var(--color10, #2f2e41)" d="M4.488 11.903c-0.024-0.737-0.422-1.375-1.010-1.735l-0.009-0.005c-0.354-0.208-0.741-0.29-1.049 0.018-0.18 0.184-0.327 0.402-0.431 0.642l-0.005 0.014c-0.144 0.327-0.228 0.709-0.228 1.11 0 0.352 0.065 0.689 0.182 0.999l-0.006-0.019 0.733 2.026 1.697 0.184c0.007 0.001 0.016 0.001 0.024 0.001 0.123 0 0.223-0.1 0.223-0.223 0-0.003 0-0.006 0-0.009v0z"></path>
<path fill="#2f2e41" style="fill: var(--color10, #2f2e41)" d="M2.772 14.704s-1.268 0.473-0.936 2.477c0.297 1.798 0.061 7.768 0.009 8.974 0 0.003 0 0.006 0 0.010 0 0.117 0.090 0.212 0.204 0.222h0.001l0.74 0.062c0.006 0 0.012 0.001 0.019 0.001 0.115 0 0.209-0.087 0.222-0.198v-0.001l0.382-3.511c0.003-0.028 0.027-0.050 0.055-0.050s0.053 0.022 0.056 0.051v0l0.285 3.378c0.010 0.115 0.106 0.204 0.222 0.204 0.002 0 0.005 0 0.007 0v0l0.622-0.020c0.12-0.004 0.216-0.102 0.216-0.223 0-0.003 0-0.005 0-0.008v0l-0.366-11.136z"></path>
<path fill="#2f2e41" style="fill: var(--color10, #2f2e41)" d="M4.058 8.15c0.458 0.188 1.043-0.032 1.264-0.474s0.046-1.042-0.379-1.296-1.036-0.124-1.321 0.281c-0.232-0.417-0.838-0.524-1.255-0.291s-0.643 0.721-0.67 1.197 0.118 0.946 0.295 1.389c0.286 0.717 1.206 1.103 1.918 0.805-0.326-0.485-0.262-1.196 0.148-1.611z"></path>
<path fill="#c0392b" style="fill: var(--color12, #c0392b)" d="M5.904 10.172c0 0 0 0 0 0-0.013 0-0.024-0.004-0.034-0.011v0h-0.001l-0.127-0.097c-0.014-0.010-0.022-0.027-0.022-0.045 0-0.031 0.025-0.057 0.057-0.057 0.013 0 0.025 0.004 0.035 0.012v0l0.082 0.063 0.195-0.254c0.010-0.014 0.027-0.022 0.045-0.022 0.013 0 0.025 0.004 0.035 0.012v0 0c0.013 0.010 0.022 0.027 0.022 0.045 0 0.013-0.004 0.025-0.012 0.035v0l-0.229 0.299c-0.010 0.013-0.027 0.022-0.045 0.022 0 0 0 0 0 0v0z"></path>
<path fill="#3f3d56" style="fill: var(--color3, #3f3d56)" d="M31.080 4.544h-17.516c-0.513 0-0.929 0.417-0.93 0.93v2.839c0 0.513 0.417 0.929 0.93 0.93h17.516c0.513 0 0.929-0.417 0.93-0.93v-2.839c0-0.513-0.417-0.929-0.93-0.93v0zM31.912 8.312c-0.001 0.459-0.373 0.831-0.832 0.832h-17.516c-0.459-0.001-0.831-0.373-0.832-0.832v-2.839c0.001-0.459 0.373-0.831 0.832-0.832h17.516c0.459 0.001 0.831 0.373 0.832 0.832v0z"></path>
<path fill="#c0392b" style="fill: var(--color12, #c0392b)" d="M17.128 8.511c0 0 0 0 0 0-0.894 0-1.619-0.725-1.619-1.619s0.725-1.619 1.619-1.619c0.894 0 1.619 0.725 1.619 1.619v0c-0.001 0.893-0.725 1.617-1.618 1.619v0z"></path>
<path fill="#ccc" style="fill: var(--color20, #ccc)" d="M28.69 8.214h-8.413c-0.216 0-0.392-0.175-0.392-0.392s0.175-0.392 0.392-0.392v0h8.413c0.216 0 0.392 0.175 0.392 0.392s-0.175 0.392-0.392 0.392v0z"></path>
<path fill="#ccc" style="fill: var(--color20, #ccc)" d="M23.061 6.55h-2.784c-0.216 0-0.392-0.175-0.392-0.392s0.175-0.392 0.392-0.392v0h2.784c0.216 0 0.392 0.175 0.392 0.392s-0.175 0.392-0.392 0.392v0z"></path>
<path fill="#fff" style="fill: var(--color4, #fff)" d="M17.045 7.462c0 0 0 0 0 0-0.042 0-0.081-0.014-0.112-0.037v0l-0.002-0.002-0.419-0.321c-0.045-0.034-0.073-0.088-0.073-0.148 0-0.103 0.083-0.186 0.186-0.186 0.043 0 0.083 0.015 0.114 0.039v0l0.272 0.208 0.642-0.838c0.034-0.045 0.088-0.073 0.148-0.073 0.043 0 0.082 0.014 0.114 0.039v0 0 0c0.044 0.034 0.073 0.088 0.073 0.148 0 0.043-0.014 0.082-0.039 0.114v0l-0.755 0.985c-0.034 0.044-0.088 0.073-0.148 0.073 0 0 0 0-0.001 0v0z"></path>
<path fill="#fff" style="fill: var(--color4, #fff)" d="M23.553 12.181h-17.516c-0.513 0-0.929 0.417-0.93 0.93v2.839c0 0.513 0.417 0.929 0.93 0.93h17.516c0.513 0 0.929-0.417 0.93-0.93v-2.839c0-0.513-0.417-0.929-0.93-0.93v0z"></path>
<path fill="#3f3d56" style="fill: var(--color3, #3f3d56)" d="M23.553 12.181h-17.516c-0.513 0-0.929 0.417-0.93 0.93v2.839c0 0.513 0.417 0.929 0.93 0.93h17.516c0.513 0 0.929-0.417 0.93-0.93v-2.839c0-0.513-0.417-0.929-0.93-0.93v0zM24.386 15.95c-0.001 0.459-0.373 0.831-0.832 0.832h-17.516c-0.459-0.001-0.831-0.373-0.832-0.832v-2.839c0.001-0.459 0.373-0.831 0.832-0.832h17.516c0.459 0.001 0.831 0.373 0.832 0.832v0z"></path>
<path fill="#c0392b" style="fill: var(--color12, #c0392b)" d="M9.602 16.149c0 0 0 0 0 0-0.894 0-1.619-0.725-1.619-1.619s0.725-1.619 1.619-1.619c0.894 0 1.619 0.725 1.619 1.619v0c-0.001 0.893-0.725 1.617-1.618 1.619v0z"></path>
<path fill="#ccc" style="fill: var(--color20, #ccc)" d="M21.164 15.852h-8.413c-0.216 0-0.392-0.175-0.392-0.392s0.175-0.392 0.392-0.392v0h8.413c0.216 0 0.392 0.175 0.392 0.392s-0.175 0.392-0.392 0.392v0z"></path>
<path fill="#ccc" style="fill: var(--color20, #ccc)" d="M15.535 14.188h-2.784c-0.216 0-0.392-0.175-0.392-0.392s0.175-0.392 0.392-0.392v0h2.784c0.216 0 0.392 0.175 0.392 0.392s-0.175 0.392-0.392 0.392v0z"></path>
<path fill="#fff" style="fill: var(--color4, #fff)" d="M9.519 15.1c0 0 0 0 0 0-0.042 0-0.081-0.014-0.112-0.037v0l-0.002-0.002-0.419-0.321c-0.045-0.034-0.073-0.088-0.073-0.148 0-0.103 0.083-0.186 0.186-0.186 0.043 0 0.083 0.015 0.114 0.039v0l0.272 0.208 0.642-0.838c0.034-0.045 0.088-0.073 0.148-0.073 0.043 0 0.082 0.014 0.114 0.039v0 0 0c0.044 0.034 0.073 0.088 0.073 0.148 0 0.043-0.014 0.082-0.039 0.114v0l-0.755 0.985c-0.034 0.044-0.088 0.073-0.148 0.073 0 0 0 0-0.001 0v0z"></path>
<path fill="#ffb8b8" style="fill: var(--color19, #ffb8b8)" d="M5.469 12.822c-0.060-0.026-0.13-0.041-0.204-0.041-0.248 0-0.455 0.172-0.509 0.403l-0.001 0.004-1.177 0.202-0.052 0.745 1.659-0.308c0.025 0.004 0.053 0.007 0.082 0.007 0.29 0 0.526-0.235 0.526-0.526 0-0.218-0.132-0.404-0.321-0.484l-0.003-0.001z"></path>
<path fill="#ccc" style="fill: var(--color20, #ccc)" d="M3.447 10.682v0c0.255 0.117 0.43 0.37 0.43 0.664 0 0.096-0.018 0.187-0.052 0.271l0.002-0.005-0.683 1.737 0.857-0.158c0.012-0.002 0.026-0.004 0.040-0.004 0.099 0 0.183 0.065 0.212 0.155v0.002l0.171 0.543c0.007 0.020 0.010 0.043 0.010 0.067 0 0.101-0.067 0.187-0.16 0.214h-0.002l-1.114 0.322c-0.079 0.024-0.169 0.037-0.263 0.037-0.522 0-0.946-0.422-0.949-0.943v0c0-0.002 0-0.003 0-0.005 0-0.070 0.008-0.139 0.022-0.205l-0.001 0.006 0.468-2.186c0.073-0.331 0.364-0.576 0.712-0.576 0.108 0 0.211 0.024 0.303 0.066l-0.005-0.002z"></path>
</symbol>
<symbol id="icon-payment" viewBox="0 0 32 32">
<path fill="#e6e6e6" style="fill: var(--color21, #e6e6e6)" d="M2.099 20.476l-0.192-0.758c-0.273-0.121-0.62-0.249-0.975-0.356l-0.070-0.018-0.024 0.352-0.098-0.388c-0.44-0.126-0.739-0.181-0.739-0.181s0.404 1.538 1.253 2.713l0.988 0.174-0.768 0.111c0.11 0.132 0.222 0.25 0.341 0.362l0.002 0.002c1.234 1.145 2.608 1.671 3.070 1.174s-0.165-1.829-1.399-2.974c-0.382-0.355-0.863-0.64-1.344-0.864z"></path>
<path fill="#e6e6e6" style="fill: var(--color21, #e6e6e6)" d="M3.926 19.653l0.227-0.748c-0.233-0.321-0.463-0.601-0.707-0.868l0.007 0.008-0.203 0.289 0.116-0.383c-0.312-0.335-0.539-0.537-0.539-0.537s-0.449 1.525-0.33 2.97l0.756 0.659-0.715-0.302c0.029 0.191 0.066 0.356 0.113 0.517l-0.007-0.028c0.464 1.618 1.369 2.778 2.021 2.591s0.804-1.65 0.34-3.269c-0.144-0.502-0.408-0.994-0.704-1.435z"></path>
<path fill="#3f3d56" style="fill: var(--color3, #3f3d56)" d="M0.003 23.933h32v0.081h-32v-0.081z"></path>
<path fill="#2f2e41" style="fill: var(--color10, #2f2e41)" d="M5.059 15.572s-0.249 2.996-0.303 3.638c-0.040 0.434-0.135 0.833-0.278 1.208l0.010-0.031s-0.107 0.214-0.107 0.428v2.729s-0.214 0-0.16 0.214 0.107 0.589 0.107 0.589h0.803s-0.053-0.16 0.107-0.214 0-0.482 0-0.482l0.856-3.21 1.284-2.675s0.749 2.408 0.91 2.675c0 0 0.589 2.996 0.696 3.264s0.161 0.268 0.107 0.375-0.053 0.214 0 0.268 1.070 0 1.070 0l-0.268-3.799-0.482-4.548-2.461-0.749z"></path>
<path fill="#2f2e41" style="fill: var(--color10, #2f2e41)" d="M4.916 23.919s-0.268-0.963-0.696-0.214-0.428 1.017-0.428 1.017-0.696 1.017 0.268 0.91 0.749-0.589 0.749-0.589 0.375-0.214 0.375-0.375-0.268-0.749-0.268-0.749z"></path>
<path fill="#2f2e41" style="fill: var(--color10, #2f2e41)" d="M9.25 23.811s0.268-0.963 0.696-0.214 0.428 1.017 0.428 1.017 0.696 1.017-0.268 0.91-0.749-0.589-0.749-0.589-0.375-0.214-0.375-0.375 0.268-0.749 0.268-0.749z"></path>
<path fill="#a0616a" style="fill: var(--color14, #a0616a)" d="M6.736 8.348s0.107 0.696-0.214 0.856 0.696 0.749 0.963 0.749 0.749-0.535 0.749-0.535-0.268-0.803-0.214-0.963z"></path>
<path fill="#a0616a" style="fill: var(--color14, #a0616a)" d="M8.448 7.76c0 0.621-0.503 1.124-1.124 1.124s-1.124-0.503-1.124-1.124c0-0.621 0.503-1.124 1.124-1.124s1.124 0.503 1.124 1.124z"></path>
<path fill="#cfcce0" style="fill: var(--color22, #cfcce0)" d="M9.518 10.061l-1.338-0.81s-0.761 0.864-1.584-0.099l-1.412 0.375 0.214 3.638s-0.321 1.445-0.214 1.712-0.268 0.375-0.16 0.428 0 0.428 0 0.428 2.087 1.070 4.387 0.268l-0.214-0.696c0.017-0.051 0.027-0.11 0.027-0.171 0-0.139-0.051-0.266-0.134-0.365l0.001 0.001s0.214-0.321-0.053-0.589c0 0 0.107-0.482-0.161-0.696l-0.053-0.749 0.161-0.375z"></path>
<path fill="#2f2e41" style="fill: var(--color10, #2f2e41)" d="M6.749 7.238s-0.134 0.29 0.402 0.174c0 0 0.201 0.116 0.201-0.058 0 0 0.268 0.29 0.335 0.116s0.201 0.058 0.201 0.058l0.134-0.29 0.134 0.174h0.469s0.134-1.16-1.474-1.044-0.817 1.953-0.817 1.953 0.013-0.33 0.147-0.156 0.268-0.928 0.268-0.928z"></path>
<path fill="#a0616a" style="fill: var(--color14, #a0616a)" d="M9.999 12.201l0.053 1.124s0.214 2.087-0.214 2.996v0.482s-0.107 1.231-0.642 1.177 0.161-1.766 0.161-1.766l-0.107-2.354-0.107-1.338z"></path>
<path fill="#cfcce0" style="fill: var(--color22, #cfcce0)" d="M8.929 10.114l0.534-0.087c0.374 0.359 0.64 0.828 0.748 1.354l0.003 0.017c0.161 0.856 0.214 1.017 0.214 1.017l-1.284 0.321-0.696-1.338z"></path>
<path fill="#fff" style="fill: var(--color4, #fff)" d="M6.631 9.504h8.444v4.194h-8.444v-4.194z"></path>
<path fill="#c0392b" style="fill: var(--color12, #c0392b)" d="M7.553 9.756c-0.217-0.13-0.479-0.12-0.578-0.111 0.038 0.092 0.152 0.328 0.368 0.459s0.479 0.121 0.578 0.111c-0.038-0.092-0.152-0.328-0.368-0.459z"></path>
<path fill="#c0392b" style="fill: var(--color12, #c0392b)" d="M8.573 12.344h-1.356c0 0 0 0 0 0-0.168 0-0.305 0.137-0.305 0.305s0.137 0.305 0.305 0.305c0 0 0 0 0 0h1.356c0 0 0 0 0 0 0.168 0 0.305-0.137 0.305-0.305s-0.137-0.305-0.305-0.305c0 0 0 0 0 0v0z"></path>
<path fill="#c0392b" style="fill: var(--color12, #c0392b)" d="M14.712 9.124h-7.602c0 0 0 0 0 0-0.372 0-0.673 0.301-0.673 0.673 0 0 0 0 0 0v0 3.704c0 0.372 0.301 0.673 0.673 0.673v0h7.602c0.372 0 0.673-0.301 0.673-0.673v0-3.704c0 0 0 0 0 0 0-0.372-0.301-0.673-0.673-0.673 0 0 0 0 0 0v0zM6.922 9.584c0.015-0.003 0.371-0.063 0.666 0.114s0.408 0.52 0.413 0.535l0.012 0.037-0.038 0.007c-0.047 0.008-0.101 0.012-0.157 0.012-0.003 0-0.006 0-0.009 0v0c-0.006 0-0.012 0-0.019 0-0.177 0-0.343-0.047-0.487-0.129l0.005 0.003c-0.295-0.177-0.408-0.52-0.413-0.535l-0.012-0.037zM8.573 13.022h-1.356c-0.206 0-0.373-0.167-0.373-0.373s0.167-0.373 0.373-0.373v0h1.356c0.206 0 0.373 0.167 0.373 0.373s-0.167 0.373-0.373 0.373v0zM14.741 12.954c-0.001 0.224-0.182 0.406-0.407 0.407h-1.017c-0.224-0.001-0.406-0.182-0.407-0.407v-0.61c0.001-0.224 0.182-0.406 0.407-0.407h1.017c0.224 0.001 0.406 0.182 0.407 0.407v0z"></path>
<path fill="#c0392b" style="fill: var(--color12, #c0392b)" d="M13.64 12.836h-0.441c-0.066 0-0.119 0.053-0.119 0.119s0.053 0.119 0.119 0.119h0.441c0.066 0 0.119-0.053 0.119-0.119s-0.053-0.119-0.119-0.119v0zM13.64 13.005h-0.441c0 0 0 0 0 0-0.028 0-0.051-0.023-0.051-0.051s0.023-0.051 0.051-0.051c0 0 0 0 0 0v0h0.441c0.028 0 0.051 0.023 0.051 0.051s-0.023 0.051-0.051 0.051v0z"></path>
<path fill="#c0392b" style="fill: var(--color12, #c0392b)" d="M14.453 12.836h-0.441c-0.066 0-0.119 0.053-0.119 0.119s0.053 0.119 0.119 0.119h0.441c0.066 0 0.119-0.053 0.119-0.119s-0.053-0.119-0.119-0.119v0zM14.453 13.005h-0.441c0 0 0 0 0 0-0.028 0-0.051-0.023-0.051-0.051s0.023-0.051 0.051-0.051c0 0 0 0 0 0v0h0.441c0.028 0 0.051 0.023 0.051 0.051s-0.023 0.051-0.051 0.051v0z"></path>
<path fill="#c0392b" style="fill: var(--color12, #c0392b)" d="M13.64 12.531h-0.441c-0.066 0-0.119 0.053-0.119 0.119s0.053 0.119 0.119 0.119h0.441c0.066 0 0.119-0.053 0.119-0.119s-0.053-0.119-0.119-0.119v0zM13.64 12.7h-0.441c-0.028 0-0.051-0.023-0.051-0.051s0.023-0.051 0.051-0.051h0.441c0.028 0 0.051 0.023 0.051 0.051s-0.023 0.051-0.051 0.051v0z"></path>
<path fill="#c0392b" style="fill: var(--color12, #c0392b)" d="M14.453 12.531h-0.441c-0.066 0-0.119 0.053-0.119 0.119s0.053 0.119 0.119 0.119h0.441c0.066 0 0.119-0.053 0.119-0.119s-0.053-0.119-0.119-0.119v0zM14.453 12.7h-0.441c-0.028 0-0.051-0.023-0.051-0.051s0.023-0.051 0.051-0.051h0.441c0.028 0 0.051 0.023 0.051 0.051s-0.023 0.051-0.051 0.051v0z"></path>
<path fill="#c0392b" style="fill: var(--color12, #c0392b)" d="M13.64 12.226h-0.441c-0.066 0-0.119 0.053-0.119 0.119s0.053 0.119 0.119 0.119h0.441c0.066 0 0.119-0.053 0.119-0.119s-0.053-0.119-0.119-0.119v0zM13.64 12.395h-0.441c0 0 0 0 0 0-0.028 0-0.051-0.023-0.051-0.051s0.023-0.051 0.051-0.051c0 0 0 0 0 0v0h0.441c0.028 0 0.051 0.023 0.051 0.051s-0.023 0.051-0.051 0.051v0z"></path>
<path fill="#c0392b" style="fill: var(--color12, #c0392b)" d="M14.453 12.226h-0.441c-0.066 0-0.119 0.053-0.119 0.119s0.053 0.119 0.119 0.119h0.441c0.066 0 0.119-0.053 0.119-0.119s-0.053-0.119-0.119-0.119v0zM14.453 12.395h-0.441c0 0 0 0 0 0-0.028 0-0.051-0.023-0.051-0.051s0.023-0.051 0.051-0.051c0 0 0 0 0 0v0h0.441c0.028 0 0.051 0.023 0.051 0.051s-0.023 0.051-0.051 0.051v0z"></path>
<path fill="#a0616a" style="fill: var(--color14, #a0616a)" d="M4.381 11.559s-0.482 2.033 0.107 2.033 1.98-2.301 1.98-2.301 1.445-0.749 0.856-1.017-1.338 0.428-1.338 0.428l-0.864 1.2-0.045-0.611z"></path>
<path fill="#cfcce0" style="fill: var(--color22, #cfcce0)" d="M5.505 9.847l-0.321-0.321s-0.642 0.375-0.696 0.749-0.321 1.552-0.321 1.552l0.99 0.080 0.321-0.482z"></path>
<path fill="#c0392b" style="fill: var(--color12, #c0392b)" d="M20.713 9.085c-0.040-0.119-0.546-0.524-0.236-0.592l0.254 0.339 1.168-1.168 0.117 0.117z"></path>
<path fill="#c0392b" style="fill: var(--color12, #c0392b)" d="M20.713 13.056c-0.040-0.119-0.546-0.524-0.236-0.592l0.254 0.339 1.168-1.168 0.117 0.117z"></path>
<path fill="#c0392b" style="fill: var(--color12, #c0392b)" d="M20.713 17.084c-0.040-0.119-0.546-0.524-0.236-0.592l0.254 0.339 1.168-1.168 0.117 0.117z"></path>
<path fill="#3f3d56" style="fill: var(--color3, #3f3d56)" d="M24.61 8.603c0 0.199-0.161 0.36-0.36 0.36s-0.36-0.161-0.36-0.36c0-0.199 0.161-0.36 0.36-0.36s0.36 0.161 0.36 0.36z"></path>
<path fill="#3f3d56" style="fill: var(--color3, #3f3d56)" d="M25.602 8.567h5.802v0.072h-5.802v-0.072z"></path>
<path fill="#3f3d56" style="fill: var(--color3, #3f3d56)" d="M24.61 12.574c0 0.199-0.161 0.36-0.36 0.36s-0.36-0.161-0.36-0.36c0-0.199 0.161-0.36 0.36-0.36s0.36 0.161 0.36 0.36z"></path>
<path fill="#3f3d56" style="fill: var(--color3, #3f3d56)" d="M25.602 12.538h5.802v0.072h-5.802v-0.072z"></path>
<path fill="#3f3d56" style="fill: var(--color3, #3f3d56)" d="M24.61 16.601c0 0.199-0.161 0.36-0.36 0.36s-0.36-0.161-0.36-0.36c0-0.199 0.161-0.36 0.36-0.36s0.36 0.161 0.36 0.36z"></path>
<path fill="#3f3d56" style="fill: var(--color3, #3f3d56)" d="M25.602 16.565h5.802v0.072h-5.802v-0.072z"></path>
<path fill="#3f3d56" style="fill: var(--color3, #3f3d56)" d="M21.623 17.621h-1.802v-1.838h1.225v0.072h-1.153v1.694h1.658v-0.829h0.072v0.901z"></path>
<path fill="#3f3d56" style="fill: var(--color3, #3f3d56)" d="M21.623 13.585h-1.802v-1.838h1.225v0.072h-1.153v1.694h1.658v-0.829h0.072v0.901z"></path>
<path fill="#3f3d56" style="fill: var(--color3, #3f3d56)" d="M21.623 9.477h-1.802v-1.838h1.225v0.072h-1.153v1.694h1.658v-0.829h0.072v0.901z"></path>
</symbol>
<symbol id="icon-people" viewBox="0 0 32 32">
<path d="M16 17q1.625 0 3.063 0.344t2.563 0.844 1.75 1.5 0.625 2.125v2.188h-16v-2.125q0-1.188 0.625-2.188t1.75-1.5 2.563-0.844 3.063-0.344zM5.313 17.313q1.125 0 1.906-0.781t0.781-1.844q0-1.125-0.781-1.906t-1.906-0.781q-1.063 0-1.844 0.781t-0.781 1.906q0 1.063 0.781 1.844t1.844 0.781zM6.813 18.813q-0.313-0.063-0.688-0.094t-0.813-0.031q-1 0-1.906 0.188t-1.781 0.563q-0.75 0.313-1.188 1t-0.438 1.5v2.063h6v-2.125q0-1.625 0.813-3.063zM26.688 17.313q1.063 0 1.844-0.781t0.781-1.844q0-1.125-0.781-1.906t-1.844-0.781q-1.125 0-1.906 0.781t-0.781 1.906q0 1.063 0.781 1.844t1.906 0.781zM32 21.938q0-0.813-0.438-1.5t-1.188-1q-0.875-0.375-1.781-0.563t-1.906-0.188q-0.438 0-0.813 0.031t-0.688 0.094q0.813 1.438 0.813 3.063v2.125h6v-2.063zM16 8q1.125 0 2.031 0.531t1.438 1.438 0.531 2.031-0.531 2.031-1.438 1.438-2.031 0.531-2.031-0.531-1.438-1.438-0.531-2.031 0.531-2.031 1.438-1.438 2.031-0.531z"></path>
</symbol>
<symbol id="icon-plus_one" viewBox="0 0 32 32">
<path d="M19.313 8.125l6-1.438v17.313h-2.625v-14.125l-3.375 0.688v-2.438zM13.313 10.688v5.313h5.375v2.688h-5.375v5.313h-2.625v-5.313h-5.375v-2.688h5.375v-5.313h2.625z"></path>
</symbol>
<symbol id="icon-shopping-cart" viewBox="0 0 32 32">
<path d="M25.372 17.333h3.961l-0.355 1.333h-3.989l0.383-1.333zM26.523 13.333h3.749l0.395-1.333h-3.761l-0.383 1.333zM25.755 16h5.849l0.396-1.333h-5.861l-0.384 1.333zM29.333 4l-0.991 2.667h-2.572l-4.632 16h-14.985l-6.153-14.667h19.749l-0.752 2.667h-14.987l3.917 9.333h11.237l4.576-16h5.592zM10 24c-1.104 0-2 0.896-2 2 0 1.105 0.896 2 2 2s2-0.895 2-2c0-1.104-0.896-2-2-2zM17.867 14.667l-1.2 9.333c-1.104 0-2 0.895-2 2s0.896 2 2 2 2-0.895 2-2c0-1.104-0.896-2-2-2z"></path>
</symbol>
<symbol id="icon-star" viewBox="0 0 32 32">
<path d="M16 23l-8.25 5 2.188-9.375-7.25-6.313 9.563-0.813 3.75-8.813 3.75 8.813 9.563 0.813-7.25 6.313 2.188 9.375z"></path>
</symbol>
<symbol id="icon-star_empty" viewBox="0 0 32 32">
<path d="M16 20.563l5 3-1.313-5.688 4.438-3.875-5.875-0.5-2.25-5.375-2.25 5.375-5.875 0.5 4.438 3.875-1.313 5.688zM29.313 12.313l-7.25 6.313 2.188 9.375-8.25-5-8.25 5 2.188-9.375-7.25-6.313 9.563-0.813 3.75-8.813 3.75 8.813z"></path>
</symbol>
<symbol id="icon-star-half" viewBox="0 0 32 32">
<path d="M16 20.563l5 3-1.313-5.688 4.438-3.875-5.875-0.5-2.25-5.375v12.438zM29.313 12.313l-7.25 6.313 2.188 9.375-8.25-5-8.25 5 2.188-9.375-7.25-6.313 9.563-0.813 3.75-8.813 3.75 8.813z"></path>
</symbol>
<symbol id="icon-time" viewBox="0 0 32 32">
<path d="M21.213 17.787l3.515-5.368-0.605-0.541-4.897 4.132c-0.9-0.184-1.869 0.091-2.525 0.824-0.981 1.097-0.887 2.784 0.212 3.765s2.784 0.887 3.765-0.212c0.656-0.733 0.82-1.727 0.536-2.6zM16 3.592v-3.592h5.333v3.592c-1.919-0.324-3.456-0.317-5.333 0zM27.801 6.344l1.876-1.876 1.885 1.885-1.761 1.761c-0.616-0.645-1.285-1.236-2-1.771zM2.667 12h10.667v2.667h-10.667v-2.667zM0 17.333h10.667v2.667h-10.667v-2.667zM4 22.667h9.333v2.667h-9.333v-2.667zM32 18.667c0 7.364-5.969 13.333-13.333 13.333-3.72 0-7.067-1.54-9.481-4h4.373c1.517 0.841 3.252 1.333 5.108 1.333 5.881 0 10.667-4.785 10.667-10.667s-4.785-10.667-10.667-10.667c-1.856 0-3.591 0.492-5.108 1.333h-4.373c2.415-2.46 5.761-4 9.481-4 7.364 0 13.333 5.969 13.333 13.333z"></path>
</symbol>
<symbol id="icon-twitter" viewBox="0 0 32 32">
<path d="M32 6.076c-1.177 0.523-2.443 0.875-3.771 1.033 1.356-0.812 2.397-2.099 2.887-3.632-1.268 0.752-2.673 1.299-4.169 1.593-1.196-1.276-2.904-2.073-4.792-2.073-4.239 0-7.353 3.955-6.396 8.060-5.455-0.273-10.292-2.887-13.531-6.859-1.72 2.951-0.892 6.811 2.031 8.765-1.075-0.035-2.088-0.329-2.972-0.821-0.072 3.041 2.108 5.887 5.265 6.52-0.924 0.251-1.936 0.309-2.965 0.112 0.835 2.608 3.259 4.505 6.133 4.559-2.76 2.164-6.237 3.131-9.72 2.72 2.905 1.863 6.357 2.949 10.064 2.949 12.189 0 19.076-10.295 18.66-19.528 1.283-0.927 2.396-2.083 3.276-3.399z"></path>
</symbol>
<symbol id="icon-instagram" viewBox="0 0 32 32">
<path d="M16 2.881c4.275 0 4.781 0.019 6.462 0.094 1.563 0.069 2.406 0.331 2.969 0.55 0.744 0.288 1.281 0.638 1.837 1.194 0.563 0.563 0.906 1.094 1.2 1.838 0.219 0.563 0.481 1.412 0.55 2.969 0.075 1.688 0.094 2.194 0.094 6.463s-0.019 4.781-0.094 6.463c-0.069 1.563-0.331 2.406-0.55 2.969-0.288 0.744-0.637 1.281-1.194 1.837-0.563 0.563-1.094 0.906-1.837 1.2-0.563 0.219-1.413 0.481-2.969 0.55-1.688 0.075-2.194 0.094-6.463 0.094s-4.781-0.019-6.463-0.094c-1.563-0.069-2.406-0.331-2.969-0.55-0.744-0.288-1.281-0.637-1.838-1.194-0.563-0.563-0.906-1.094-1.2-1.837-0.219-0.563-0.481-1.413-0.55-2.969-0.075-1.688-0.094-2.194-0.094-6.463s0.019-4.781 0.094-6.463c0.069-1.563 0.331-2.406 0.55-2.969 0.288-0.744 0.638-1.281 1.194-1.838 0.563-0.563 1.094-0.906 1.838-1.2 0.563-0.219 1.412-0.481 2.969-0.55 1.681-0.075 2.188-0.094 6.463-0.094zM16 0c-4.344 0-4.887 0.019-6.594 0.094-1.7 0.075-2.869 0.35-3.881 0.744-1.056 0.412-1.95 0.956-2.837 1.85-0.894 0.888-1.438 1.781-1.85 2.831-0.394 1.019-0.669 2.181-0.744 3.881-0.075 1.713-0.094 2.256-0.094 6.6s0.019 4.887 0.094 6.594c0.075 1.7 0.35 2.869 0.744 3.881 0.413 1.056 0.956 1.95 1.85 2.837 0.887 0.887 1.781 1.438 2.831 1.844 1.019 0.394 2.181 0.669 3.881 0.744 1.706 0.075 2.25 0.094 6.594 0.094s4.888-0.019 6.594-0.094c1.7-0.075 2.869-0.35 3.881-0.744 1.050-0.406 1.944-0.956 2.831-1.844s1.438-1.781 1.844-2.831c0.394-1.019 0.669-2.181 0.744-3.881 0.075-1.706 0.094-2.25 0.094-6.594s-0.019-4.887-0.094-6.594c-0.075-1.7-0.35-2.869-0.744-3.881-0.394-1.063-0.938-1.956-1.831-2.844-0.887-0.887-1.781-1.438-2.831-1.844-1.019-0.394-2.181-0.669-3.881-0.744-1.712-0.081-2.256-0.1-6.6-0.1v0z"></path>
<path d="M16 7.781c-4.537 0-8.219 3.681-8.219 8.219s3.681 8.219 8.219 8.219 8.219-3.681 8.219-8.219c0-4.537-3.681-8.219-8.219-8.219zM16 21.331c-2.944 0-5.331-2.387-5.331-5.331s2.387-5.331 5.331-5.331c2.944 0 5.331 2.387 5.331 5.331s-2.387 5.331-5.331 5.331z"></path>
<path d="M26.462 7.456c0 1.060-0.859 1.919-1.919 1.919s-1.919-0.859-1.919-1.919c0-1.060 0.859-1.919 1.919-1.919s1.919 0.859 1.919 1.919z"></path>
</symbol>
</defs>
</svg>
